<svg width="121" height="60" viewBox="0 0 121 60" fill="none" xmlns="http://www.w3.org/2000/svg">
<path d="M52.1917 30.5644C51.3459 31.2966 50.3357 32.0438 49.1671 32.8059C47.9985 33.571 46.7612 34.2763 45.4581 34.9219C44.1551 35.5704 42.8072 36.0994 41.4174 36.5149C40.0277 36.9303 38.6738 37.1365 37.3528 37.1365C35.8614 37.1365 34.6241 36.73 33.6438 35.9171C32.6605 35.1042 32.1704 34.0671 32.1704 32.8029C32.1704 32.0378 32.2899 31.3175 32.526 30.6361C32.7621 29.9547 32.9146 29.4974 32.9833 29.2673C33.0162 29.2344 33.0341 29.1836 33.0341 29.1178L32.9833 29.067H32.9325C30.5953 30.7616 28.1715 32.2739 25.664 33.6009C24.6149 34.1657 23.4852 34.7216 22.2837 35.2686C21.0823 35.8155 19.845 36.3056 18.5748 36.739C17.3046 37.1694 16.0164 37.5101 14.7134 37.7611C13.4073 38.0092 12.1281 38.1347 10.8759 38.1347C9.01093 38.1347 7.39404 37.9106 6.02223 37.4623C4.65042 37.014 3.52368 36.3923 2.64201 35.5943C1.76034 34.7963 1.09984 33.8519 0.6605 32.7551C0.221161 31.6582 0 30.4627 0 29.1686C0 27.3425 0.415433 25.367 1.24629 23.239C2.07715 21.1141 3.26964 19.004 4.82974 16.912C6.38685 14.8199 8.30261 12.8025 10.571 10.8598C12.8395 8.91719 15.3978 7.19869 18.246 5.70434C21.0913 4.20999 24.2264 3.02347 27.6485 2.1418C31.0705 1.26312 34.7138 0.820801 38.5752 0.820801C40.201 0.820801 41.8179 1.05392 43.4288 1.51716C45.0367 1.9834 46.4773 2.65586 47.7475 3.53454C49.0177 4.4162 50.0518 5.46225 50.8468 6.67267C51.6418 7.88609 52.0422 9.23997 52.0422 10.7343C52.0422 11.8969 51.8898 13.0087 51.585 14.0727C51.2801 15.1367 50.8826 16.1409 50.3895 17.0883C49.8993 18.0357 49.3375 18.9234 48.7128 19.7542C48.0852 20.5851 47.4337 21.3322 46.7552 21.9957C45.1951 23.5887 43.4348 25.0024 41.4712 26.2307H41.3696C41.3367 26.2307 41.3008 26.2397 41.268 26.2546C41.2351 26.2726 41.1843 26.2786 41.1156 26.2786C41.0468 26.2786 40.9123 26.2636 40.7091 26.2277C40.5059 26.1949 40.3026 26.153 40.0994 26.1022C39.8962 26.0514 39.7168 25.9707 39.5644 25.8542C39.412 25.7376 39.3343 25.6151 39.3343 25.4806C39.3343 25.3162 39.5046 25.116 39.8424 24.8828C41.7043 23.5887 43.3481 22.1422 44.7707 20.5492C45.3804 19.8857 45.9812 19.1535 46.5759 18.3555C47.1677 17.5575 47.6937 16.7117 48.1509 15.8151C48.6082 14.9185 48.9728 13.989 49.2448 13.0237C49.5168 12.0613 49.6513 11.0631 49.6513 10.035C49.6513 8.97098 49.3972 7.93391 48.8892 6.92074C48.3811 5.90757 47.619 5.01992 46.6028 4.25482C45.5866 3.48971 44.3164 2.87703 42.7922 2.41079C41.268 1.94455 39.4897 1.71442 37.4574 1.71442C34.1041 1.71442 30.9181 2.12089 27.9025 2.93381C24.8869 3.74674 22.0925 4.84359 19.5162 6.22139C16.9399 7.59918 14.6297 9.19514 12.5794 11.0033C10.5292 12.8145 8.78379 14.6914 7.34622 16.634C5.90567 18.5767 4.79686 20.5373 4.01681 22.5128C3.23676 24.4883 2.84823 26.3413 2.84823 28.0688C2.84823 29.2971 3.06043 30.4358 3.48483 31.4819C3.90922 32.5279 4.56075 33.4335 5.44242 34.1986C6.32409 34.9637 7.45083 35.5615 8.82264 35.9918C10.1945 36.4222 11.8113 36.6404 13.6763 36.6404C15.0302 36.6404 16.4528 36.4401 17.9442 36.0426C19.4355 35.6451 20.9179 35.1221 22.3913 34.4736C23.8648 33.825 25.3053 33.0868 26.71 32.256C28.1147 31.4251 29.4297 30.5883 30.6491 29.7395C31.8685 28.8937 32.9773 28.0628 33.9785 27.2499C34.9768 26.437 35.7837 25.7316 36.3934 25.1309C36.5279 25.0323 36.6385 24.9157 36.7252 24.7812C36.8088 24.6497 36.9373 24.581 37.1077 24.581C37.1764 24.581 37.2781 24.6139 37.4125 24.6796C37.6487 24.8141 37.7682 24.9635 37.7682 25.1279C37.7682 25.3282 37.6337 25.5613 37.3617 25.8243C36.9553 26.3234 36.5817 26.7866 36.244 27.22C35.9062 27.6534 35.6163 28.0927 35.3802 28.541C35.1441 28.9893 34.9558 29.4705 34.8214 29.9845C34.6869 30.4986 34.6181 31.1053 34.6181 31.8017C34.6181 33.296 34.9558 34.3361 35.6343 34.9159C36.3127 35.4987 37.1406 35.7886 38.1239 35.7886C39.9201 35.7886 41.6296 35.4808 43.2555 34.8681C44.8813 34.2524 46.3219 33.5799 47.5741 32.8507C49.0296 31.987 50.3865 31.0246 51.6388 29.9606H51.7404C51.8749 29.9606 51.9855 30.0264 52.0721 30.1609C52.1558 30.2924 52.2006 30.4089 52.2006 30.5105V30.5644H52.1917Z" fill="#DCA370"/>
<path d="M81.6142 4.70612C81.6142 5.86872 81.0882 7.24651 80.0392 8.84248C78.9872 10.4355 77.6243 12.13 75.9477 13.9233C74.271 15.7165 72.3911 17.5366 70.308 19.3776C68.2248 21.2217 66.1417 22.982 64.0586 24.6587C61.9755 26.3353 59.994 27.8476 58.1141 29.1925C56.2342 30.5375 54.683 31.6074 53.4637 32.4054C52.854 34.5662 52.5491 36.5238 52.5491 38.2842V38.9327C52.5491 39.1658 52.5073 39.3721 52.4206 39.5544C52.3369 39.7367 52.1247 39.8622 51.784 39.928C51.6824 39.9608 51.5479 39.9788 51.3775 39.9788C51.004 39.9788 50.7409 39.8712 50.5885 39.656C50.4361 39.4408 50.3584 39.1987 50.3584 38.9327C50.4271 36.7061 50.9442 34.2494 51.9095 31.5596C52.8749 28.8698 54.1271 26.1471 55.6693 23.3885C57.2115 20.6329 58.9808 17.958 60.9802 15.3668C62.9797 12.7756 65.0269 10.4773 67.128 8.4659C69.2291 6.45749 71.3122 4.84659 73.3774 3.63318C75.4426 2.41976 77.3404 1.81604 79.0679 1.81604C79.9495 1.81604 80.5921 1.99836 80.9986 2.36298C81.411 2.73059 81.6142 3.51064 81.6142 4.70612ZM79.5819 4.90636C79.5819 4.47598 79.4534 4.08447 79.1994 3.73479C78.9453 3.38511 78.497 3.21177 77.8515 3.21177C76.4946 3.21177 75.048 3.63616 73.5059 4.48197C71.9637 5.32777 70.4066 6.46646 68.8316 7.89506C67.2565 9.32366 65.6964 10.9854 64.1572 12.8772C62.6151 14.7721 61.1745 16.7715 59.8386 18.8815C58.4996 20.9915 57.3041 23.1404 56.2551 25.3341C55.2061 27.5278 54.3573 29.6349 53.7147 31.6612C54.9341 30.8961 56.4255 29.8501 58.1858 28.5231C59.9462 27.1961 61.7842 25.7167 63.7 24.0878C65.6127 22.462 67.5195 20.7405 69.4173 18.9323C71.3152 17.1212 73.0157 15.3459 74.525 13.6005C76.0313 11.8581 77.2507 10.2292 78.1832 8.71695C79.1157 7.20467 79.5819 5.93447 79.5819 4.90636Z" fill="#DCA370"/>
<path d="M76.7388 28.8697C76.7388 29.5661 76.3742 30.2654 75.6449 30.9618C74.9157 31.6581 74.052 32.2828 73.0537 32.8297C72.0555 33.3766 71.0304 33.8339 69.9784 34.1985C68.9293 34.5632 68.0805 34.7455 67.438 34.7455C66.8283 34.7455 66.4368 34.62 66.2694 34.3719C66.099 34.1238 65.9466 33.9325 65.8121 33.798C65.7792 33.7652 65.7613 33.6994 65.7613 33.5978C65.7613 33.4334 65.8211 33.275 65.9406 33.1256C66.0602 32.9762 66.2036 32.8357 66.374 32.7012C66.5443 32.5697 66.7057 32.4621 66.8582 32.3784C67.0106 32.2947 67.1391 32.2529 67.2407 32.2529C67.4768 32.2529 67.6382 32.3186 67.7249 32.4531C67.8086 32.5876 67.8863 32.7371 67.955 32.9014C68.0238 33.0359 68.1672 33.1854 68.3884 33.3497C68.6095 33.5171 68.9383 33.5978 69.3806 33.5978C69.9574 33.5978 70.5402 33.4813 71.135 33.2481C71.7267 33.015 72.2707 32.7072 72.7608 32.3276C73.251 31.9451 73.6575 31.5296 73.9802 31.0813C74.303 30.633 74.4644 30.1937 74.4644 29.7603C74.4644 29.33 74.303 29.0371 73.9802 28.8876C73.6575 28.7382 73.3108 28.6635 72.9372 28.6635C72.2946 28.6635 71.4727 28.8308 70.4715 29.1626C69.4703 29.4943 68.3286 29.9606 67.0405 30.5583C65.2771 32.5189 63.5258 34.611 61.7804 36.8346C60.035 39.0582 58.3254 41.2608 56.6488 43.4366C54.9721 45.6124 53.3373 47.7045 51.7443 49.7129C50.1513 51.7213 48.6121 53.4816 47.1208 54.9939C45.6294 56.5062 44.1978 57.7166 42.826 58.6312C41.4542 59.5457 40.1571 60 38.9377 60C38.2952 60 37.7512 59.8326 37.3119 59.5009C36.8725 59.1691 36.6514 58.6551 36.6514 57.9557C36.6514 56.5929 37.0847 55.1075 37.9485 53.4966C38.8122 51.8857 39.9808 50.2329 41.4542 48.5383C42.9276 46.8437 44.6222 45.1491 46.535 43.4575C48.4508 41.7629 50.4651 40.1281 52.5811 38.5501C54.7001 36.9721 56.849 35.4956 59.0337 34.1149C61.2185 32.7371 63.2926 31.5476 65.2592 30.5523C65.6328 29.9875 65.9705 29.4883 66.2754 29.058C66.5802 28.6276 66.8522 28.26 67.0883 27.9611C67.3603 27.5965 67.5784 27.2797 67.7488 27.0137C67.7488 26.8822 67.8415 26.7985 68.0297 26.7656C68.215 26.7328 68.3764 26.7148 68.5139 26.7148C68.75 26.7477 68.9891 26.7746 69.2252 26.7896C69.4613 26.8075 69.5809 26.9151 69.5809 27.1123C69.5809 27.2438 69.4464 27.5188 69.1744 27.9342C68.9024 28.3496 68.6663 28.6575 68.4631 28.8547L68.1583 29.1536C69.5121 28.5559 70.7405 28.0896 71.8433 27.7579C72.9431 27.4262 73.8667 27.2588 74.6138 27.2588C75.089 27.2588 75.5613 27.4172 76.0365 27.731C76.4997 28.0657 76.7388 28.4393 76.7388 28.8697ZM64.2879 31.9092C62.5604 32.8387 60.7313 33.9116 58.8006 35.1221C56.8699 36.3355 54.9721 37.6445 53.1101 39.0582C51.2482 40.4688 49.452 41.9482 47.7245 43.4934C45.997 45.0386 44.4907 46.5837 43.2026 48.1259C41.9145 49.671 40.8834 51.1983 40.1033 52.7106C39.3233 54.2228 38.9347 55.6425 38.9347 56.9694C38.9347 57.2354 39.0274 57.5493 39.2157 57.9169C39.401 58.2815 39.7835 58.4638 40.3603 58.4638C41.1075 58.4638 42.0639 58.0065 43.2325 57.095C44.4011 56.1804 45.7071 54.9849 47.1447 53.5085C48.5852 52.0291 50.0856 50.3525 51.6427 48.4756C53.2028 46.5987 54.7509 44.6709 56.2931 42.6954C57.8353 40.7199 59.2908 38.7922 60.6626 36.9153C62.0254 35.0414 63.2359 33.3707 64.2879 31.9092Z" fill="#DCA370"/>
<path d="M93.7093 32.6565C93.7093 32.791 93.6584 32.8896 93.5568 32.9554L91.2705 33.852C90.9327 33.9835 90.4994 34.1598 89.9734 34.375C89.4474 34.5902 88.8795 34.7994 88.2698 34.9967C87.6601 35.1969 87.0654 35.3702 86.4915 35.5197C85.9147 35.6691 85.4066 35.7438 84.9673 35.7438C84.256 35.7438 83.9003 35.5287 83.9003 35.0953C83.9003 34.9638 83.9272 34.7875 83.978 34.5723C84.0289 34.3571 84.1394 34.1329 84.3098 33.8998C84.0378 34.1001 83.6672 34.3242 83.192 34.5723C82.7168 34.8203 82.2087 35.0535 81.6678 35.2686C81.1268 35.4838 80.5739 35.6751 80.015 35.8425C79.4561 36.0068 78.957 36.0905 78.5147 36.0905C77.8721 36.0905 77.4059 35.965 77.116 35.7169C76.8291 35.4689 76.6826 35.161 76.6826 34.7964C76.6826 34.1658 77.0203 33.3857 77.6988 32.4563C78.3772 31.5268 79.2409 30.6391 80.29 29.7903C81.339 28.9445 82.4927 28.2213 83.7449 27.6235C84.9972 27.0258 86.2016 26.7269 87.3523 26.7269C87.9291 26.7269 88.3356 26.8256 88.5717 27.0258C88.8078 27.2081 88.9273 27.4741 88.9273 27.8238C88.9273 28.3558 88.6823 28.837 88.1891 29.2673C87.699 29.7007 87.2327 30.0474 86.7904 30.3134C86.6559 30.3791 86.5543 30.412 86.4856 30.412C86.4168 30.412 86.3242 30.3701 86.2046 30.2865C86.0851 30.2028 86.0253 30.0952 86.0253 29.9637C86.0253 29.7993 86.1598 29.5483 86.4318 29.2165C86.5662 29.085 86.7276 28.8937 86.9159 28.6427C87.1012 28.3946 87.1969 28.1854 87.1969 28.021C87.1969 27.8895 87.1371 27.7819 87.0175 27.6983C86.898 27.6146 86.6529 27.5727 86.2793 27.5727C85.7025 27.5727 84.9912 27.7819 84.1454 28.2004C83.2966 28.6188 82.4837 29.1388 81.7066 29.7575C80.9266 30.3761 80.2571 31.0187 79.6982 31.6882C79.1393 32.3576 78.8584 32.9434 78.8584 33.4455C78.8584 33.8131 79.0108 34.0911 79.3157 34.2734C79.6205 34.4587 79.9582 34.5484 80.3318 34.5484C80.7054 34.5484 81.1268 34.4647 81.602 34.3003C82.0772 34.1359 82.5345 33.9506 82.9738 33.7534C83.4132 33.5531 83.8137 33.3469 84.1693 33.1317C84.525 32.9165 84.7551 32.7581 84.8567 32.6595C84.9255 32.5937 85.0271 32.4951 85.1616 32.3606C85.2961 32.2291 85.4335 32.1604 85.568 32.1604C85.6368 32.1604 85.7384 32.1933 85.8729 32.259C86.0074 32.3248 86.0761 32.4413 86.0761 32.6087C85.9057 32.8747 85.7892 33.1078 85.7204 33.3051C85.6517 33.5053 85.6188 33.6876 85.6188 33.852C85.6188 34.2854 85.9237 34.5005 86.5334 34.5005C86.907 34.5005 87.3224 34.4438 87.7797 34.3272C88.2369 34.2106 88.6942 34.0791 89.1515 33.9297C89.6088 33.7803 90.0332 33.6308 90.4217 33.4814C90.8102 33.332 91.1091 33.2244 91.3123 33.1586C91.9907 32.8926 92.4988 32.6954 92.8365 32.5609C93.0398 32.4623 93.243 32.3786 93.4462 32.3128C93.515 32.3128 93.5748 32.3546 93.6256 32.4383C93.6823 32.516 93.7093 32.5908 93.7093 32.6565Z" fill="#DCA370"/>
<path d="M106.313 32.7071C106.313 32.8416 106.262 32.9402 106.161 33.006C104.771 33.5708 103.417 34.0699 102.096 34.5003C100.978 34.856 99.8155 35.1937 98.6141 35.5135C97.4096 35.8333 96.4024 35.9947 95.5895 35.9947C94.8095 35.9947 94.0981 35.7466 93.4556 35.2475C92.813 34.7484 92.4902 34.0341 92.4902 33.1046C92.4902 32.2408 92.813 31.3681 93.4556 30.4895C94.0981 29.6108 94.8872 28.8218 95.8197 28.1224C96.7521 27.426 97.7414 26.8522 98.7934 26.4039C99.8424 25.9556 100.793 25.7314 101.639 25.7314C101.875 25.7314 102.078 25.7823 102.248 25.8809C102.622 26.0482 102.807 26.4129 102.807 26.9777C102.807 27.3095 102.679 27.6412 102.425 27.973C102.171 28.3047 101.89 28.6036 101.585 28.8696C101.211 29.1685 100.805 29.4524 100.365 29.7154C100.333 29.7154 100.264 29.7333 100.162 29.7662C99.959 29.8319 99.7378 29.8648 99.5017 29.8648C99.3314 29.8648 99.2477 29.7483 99.2477 29.5152C99.2477 29.3508 99.3493 29.1655 99.5525 28.9682C99.8245 28.8038 100.171 28.502 100.596 28.0716C101.02 27.6412 101.232 27.2587 101.232 26.9269C101.232 26.6938 101.032 26.5773 100.628 26.5773C100.123 26.5773 99.5197 26.7536 98.8113 27.1033C98.106 27.4529 97.4246 27.8893 96.7671 28.4063C96.1125 28.9234 95.5566 29.5092 95.1024 30.1607C94.6481 30.8122 94.4209 31.4399 94.4209 32.0406C94.4209 32.8416 94.6989 33.4692 95.2548 33.9205C95.8107 34.3718 96.6087 34.5959 97.6547 34.5959C98.5304 34.5959 99.4569 34.4704 100.434 34.2224C101.412 33.9743 102.32 33.7173 103.163 33.4513C104.146 33.1195 105.112 32.7549 106.059 32.3544C106.128 32.3544 106.187 32.3963 106.238 32.4799C106.286 32.5666 106.313 32.6413 106.313 32.7071Z" fill="#DCA370"/>
<path d="M120.999 32.6565C120.999 32.791 120.948 32.8896 120.847 32.9554L118.561 33.852C118.223 33.9835 117.789 34.1598 117.263 34.375C116.737 34.5902 116.17 34.7994 115.56 34.9967C114.95 35.1969 114.355 35.3702 113.782 35.5197C113.205 35.6691 112.697 35.7438 112.257 35.7438C111.546 35.7438 111.19 35.5287 111.19 35.0953C111.19 34.9638 111.217 34.7875 111.268 34.5723C111.319 34.3571 111.429 34.1329 111.6 33.8998C111.328 34.1001 110.957 34.3242 110.482 34.5723C110.007 34.8203 109.499 35.0535 108.958 35.2686C108.417 35.4838 107.864 35.6751 107.305 35.8425C106.746 36.0068 106.247 36.0905 105.805 36.0905C105.162 36.0905 104.696 35.965 104.406 35.7169C104.119 35.4689 103.973 35.161 103.973 34.7964C103.973 34.1658 104.31 33.3857 104.989 32.4563C105.667 31.5268 106.531 30.6391 107.58 29.7903C108.629 28.9445 109.783 28.2213 111.035 27.6235C112.287 27.0258 113.492 26.7269 114.642 26.7269C115.219 26.7269 115.626 26.8256 115.862 27.0258C116.098 27.2081 116.217 27.4741 116.217 27.8238C116.217 28.3558 115.972 28.837 115.479 29.2673C114.989 29.7007 114.523 30.0474 114.08 30.3134C113.946 30.3791 113.844 30.412 113.776 30.412C113.707 30.412 113.614 30.3701 113.495 30.2865C113.375 30.2028 113.315 30.0952 113.315 29.9637C113.315 29.7993 113.45 29.5483 113.722 29.2165C113.856 29.085 114.018 28.8937 114.206 28.6427C114.391 28.3946 114.487 28.1854 114.487 28.021C114.487 27.8895 114.427 27.7819 114.308 27.6983C114.188 27.6146 113.943 27.5727 113.569 27.5727C112.993 27.5727 112.281 27.7819 111.435 28.2004C110.587 28.6188 109.774 29.1388 108.997 29.7575C108.217 30.3761 107.547 31.0187 106.988 31.6882C106.429 32.3576 106.148 32.9434 106.148 33.4455C106.148 33.8131 106.301 34.0911 106.606 34.2734C106.911 34.4587 107.248 34.5484 107.622 34.5484C107.995 34.5484 108.417 34.4647 108.892 34.3003C109.367 34.1359 109.825 33.9506 110.264 33.7534C110.703 33.5531 111.104 33.3469 111.459 33.1317C111.815 32.9165 112.045 32.7581 112.147 32.6595C112.216 32.5937 112.317 32.4951 112.452 32.3606C112.586 32.2291 112.724 32.1604 112.858 32.1604C112.927 32.1604 113.028 32.1933 113.163 32.259C113.297 32.3248 113.366 32.4413 113.366 32.6087C113.196 32.8747 113.079 33.1078 113.01 33.3051C112.942 33.5053 112.909 33.6876 112.909 33.852C112.909 34.2854 113.214 34.5005 113.823 34.5005C114.197 34.5005 114.612 34.4438 115.07 34.3272C115.527 34.2106 115.984 34.0791 116.442 33.9297C116.899 33.7803 117.323 33.6308 117.712 33.4814C118.1 33.332 118.399 33.2244 118.602 33.1586C119.281 32.8926 119.789 32.6954 120.127 32.5609C120.33 32.4623 120.533 32.3786 120.736 32.3128C120.805 32.3128 120.865 32.3546 120.916 32.4383C120.972 32.516 120.999 32.5908 120.999 32.6565Z" fill="#DCA370"/>
</svg>
