<svg width="105" height="105" viewBox="0 0 105 105" fill="none" xmlns="http://www.w3.org/2000/svg">
<path d="M47.3969 71.814C46.8696 72.2675 46.2399 72.7303 45.5114 73.2023C44.7829 73.6762 44.0116 74.113 43.1992 74.5129C42.3869 74.9145 41.5466 75.2422 40.6803 75.4995C39.8139 75.7568 38.9699 75.8845 38.1464 75.8845C37.2167 75.8845 36.4454 75.6328 35.8343 75.1293C35.2213 74.6258 34.9157 73.9834 34.9157 73.2004C34.9157 72.7266 34.9903 72.2804 35.1375 71.8584C35.2846 71.4364 35.3797 71.1531 35.4225 71.0106C35.443 70.9902 35.4542 70.9588 35.4542 70.918L35.4225 70.8866H35.3908C33.9339 71.9361 32.4229 72.8728 30.8597 73.6947C30.2057 74.0445 29.5015 74.3888 28.7525 74.7276C28.0035 75.0663 27.2322 75.3699 26.4403 75.6383C25.6485 75.9049 24.8455 76.1159 24.0332 76.2714C23.219 76.425 22.4216 76.5028 21.6409 76.5028C20.4783 76.5028 19.4704 76.3639 18.6152 76.0863C17.76 75.8086 17.0576 75.4236 16.508 74.9293C15.9583 74.4351 15.5466 73.8502 15.2727 73.1708C14.9988 72.4915 14.861 71.751 14.861 70.9495C14.861 69.8185 15.1199 68.5949 15.6379 67.277C16.1558 65.9608 16.8992 64.654 17.8718 63.3582C18.8425 62.0624 20.0367 60.813 21.4509 59.6098C22.865 58.4066 24.4598 57.3422 26.2354 56.4166C28.0091 55.4911 29.9635 54.7562 32.0968 54.2101C34.2301 53.6659 36.5013 53.392 38.9084 53.392C39.922 53.392 40.9299 53.5363 41.9342 53.8233C42.9365 54.112 43.8346 54.5285 44.6264 55.0728C45.4182 55.6188 46.0629 56.2667 46.5585 57.0164C47.0541 57.7679 47.3037 58.6065 47.3037 59.532C47.3037 60.2521 47.2087 60.9407 47.0187 61.5997C46.8286 62.2587 46.5808 62.8806 46.2734 63.4674C45.9679 64.0542 45.6176 64.604 45.2282 65.1186C44.8369 65.6332 44.4308 66.096 44.0078 66.5069C43.0353 67.4935 41.9379 68.3691 40.7138 69.1299H40.6505C40.63 69.1299 40.6076 69.1354 40.5871 69.1447C40.5666 69.1558 40.535 69.1595 40.4921 69.1595C40.4493 69.1595 40.3654 69.1503 40.2387 69.1281C40.112 69.1077 39.9853 69.0818 39.8586 69.0503C39.7319 69.0188 39.6202 68.9689 39.5251 68.8967C39.4301 68.8245 39.3817 68.7486 39.3817 68.6653C39.3817 68.5635 39.4879 68.4394 39.6984 68.2951C40.8591 67.4935 41.8839 66.5976 42.7707 65.611C43.1508 65.2 43.5253 64.7465 43.8961 64.2523C44.265 63.758 44.5929 63.2342 44.8779 62.6789C45.163 62.1235 45.3903 61.5479 45.5598 60.95C45.7294 60.3539 45.8132 59.7356 45.8132 59.0989C45.8132 58.4399 45.6548 57.7976 45.3381 57.17C45.0214 56.5425 44.5463 55.9927 43.9128 55.5189C43.2794 55.045 42.4875 54.6655 41.5373 54.3767C40.5871 54.088 39.4786 53.9454 38.2116 53.9454C36.1212 53.9454 34.1351 54.1972 32.2552 54.7007C30.3753 55.2042 28.6333 55.8835 27.0272 56.7369C25.4212 57.5902 23.981 58.5787 22.7029 59.6986C21.4248 60.8204 20.3367 61.9829 19.4405 63.1861C18.5425 64.3893 17.8513 65.6036 17.365 66.8272C16.8787 68.0507 16.6365 69.1984 16.6365 70.2683C16.6365 71.0291 16.7688 71.7344 17.0334 72.3823C17.2979 73.0301 17.7041 73.591 18.2537 74.0649C18.8034 74.5388 19.5058 74.909 20.3609 75.1755C21.2161 75.4421 22.2241 75.5772 23.3867 75.5772C24.2307 75.5772 25.1175 75.4532 26.0472 75.207C26.9769 74.9608 27.901 74.6369 28.8196 74.2352C29.7381 73.8335 30.6361 73.3763 31.5118 72.8617C32.3875 72.3471 33.2072 71.8288 33.9674 71.3031C34.7276 70.7792 35.4188 70.2646 36.0429 69.7611C36.6652 69.2576 37.1683 68.8208 37.5484 68.4487C37.6322 68.3876 37.7011 68.3154 37.7552 68.2321C37.8073 68.1507 37.8874 68.1081 37.9936 68.1081C38.0365 68.1081 38.0998 68.1285 38.1837 68.1692C38.3309 68.2525 38.4054 68.345 38.4054 68.4469C38.4054 68.5709 38.3216 68.7153 38.152 68.8781C37.8986 69.1873 37.6657 69.4742 37.4552 69.7426C37.2447 70.011 37.0639 70.2831 36.9167 70.5608C36.7696 70.8385 36.6522 71.1365 36.5683 71.4549C36.4845 71.7733 36.4416 72.149 36.4416 72.5803C36.4416 73.5059 36.6522 74.15 37.0751 74.5092C37.4981 74.8701 38.0141 75.0497 38.6271 75.0497C39.7469 75.0497 40.8126 74.859 41.8261 74.4795C42.8397 74.0982 43.7377 73.6817 44.5183 73.2301C45.4257 72.6951 46.2715 72.099 47.0522 71.4401H47.1155C47.1994 71.4401 47.2683 71.4808 47.3224 71.5641C47.3745 71.6455 47.4025 71.7177 47.4025 71.7806V71.814H47.3969Z" fill="#DCA370"/>
<path d="M65.7394 55.7984C65.7394 56.5185 65.4115 57.3718 64.7576 58.3603C64.1017 59.347 63.2521 60.3965 62.2069 61.5072C61.1617 62.6178 59.9898 63.7451 58.6912 64.8854C57.3926 66.0275 56.094 67.1178 54.7954 68.1563C53.4968 69.1947 52.2615 70.1314 51.0896 70.9644C49.9177 71.7974 48.9507 72.4601 48.1906 72.9543C47.8105 74.2926 47.6204 75.5051 47.6204 76.5954V76.9971C47.6204 77.1415 47.5944 77.2692 47.5403 77.3821C47.4882 77.495 47.3559 77.5728 47.1435 77.6135C47.0801 77.6338 46.9963 77.645 46.8901 77.645C46.6572 77.645 46.4932 77.5783 46.3982 77.445C46.3032 77.3118 46.2548 77.1618 46.2548 76.9971C46.2976 75.618 46.6199 74.0964 47.2217 72.4304C47.8235 70.7645 48.6042 69.0781 49.5655 67.3696C50.5269 65.6629 51.6299 64.0061 52.8763 62.4012C54.1228 60.7964 55.399 59.3729 56.7088 58.1271C58.0186 56.8832 59.3172 55.8854 60.6046 55.1339C61.892 54.3823 63.0751 54.0084 64.152 54.0084C64.7017 54.0084 65.1022 54.1213 65.3556 54.3472C65.6127 54.5749 65.7394 55.058 65.7394 55.7984ZM64.4725 55.9224C64.4725 55.6559 64.3924 55.4134 64.234 55.1968C64.0756 54.9802 63.7962 54.8729 63.3937 54.8729C62.5479 54.8729 61.6461 55.1357 60.6847 55.6596C59.7234 56.1835 58.7527 56.8887 57.7708 57.7735C56.7889 58.6584 55.8164 59.6876 54.8569 60.8593C53.8955 62.0329 52.9974 63.2713 52.1646 64.5781C51.3299 65.885 50.5847 67.2159 49.9307 68.5746C49.2768 69.9333 48.7476 71.2383 48.3471 72.4934C49.1072 72.0195 50.0369 71.3716 51.1343 70.5497C52.2317 69.7279 53.3775 68.8116 54.5718 67.8027C55.7642 66.7957 56.9529 65.7295 58.136 64.6096C59.3191 63.4878 60.3792 62.3883 61.3201 61.3073C62.2591 60.2281 63.0192 59.2192 63.6005 58.2826C64.1818 57.3459 64.4725 56.5592 64.4725 55.9224Z" fill="#DCA370"/>
<path d="M62.6988 70.7643C62.6988 71.1956 62.4715 71.6288 62.0169 72.0601C61.5623 72.4914 61.0238 72.8783 60.4015 73.217C59.7792 73.5557 59.1402 73.839 58.4844 74.0648C57.8304 74.2906 57.3013 74.4036 56.9007 74.4036C56.5206 74.4036 56.2766 74.3258 56.1722 74.1722C56.066 74.0185 55.971 73.9001 55.8872 73.8168C55.8667 73.7964 55.8555 73.7557 55.8555 73.6927C55.8555 73.5909 55.8927 73.4928 55.9673 73.4003C56.0418 73.3077 56.1312 73.2207 56.2374 73.1374C56.3436 73.056 56.4442 72.9893 56.5392 72.9375C56.6343 72.8857 56.7144 72.8597 56.7777 72.8597C56.9249 72.8597 57.0255 72.9005 57.0796 72.9838C57.1317 73.0671 57.1802 73.1596 57.223 73.2614C57.2659 73.3447 57.3553 73.4373 57.4932 73.5391C57.631 73.6427 57.836 73.6927 58.1117 73.6927C58.4713 73.6927 58.8346 73.6205 59.2054 73.4762C59.5743 73.3318 59.9134 73.1411 60.2189 72.906C60.5245 72.6691 60.7779 72.4118 60.9791 72.1341C61.1803 71.8565 61.2809 71.5844 61.2809 71.3159C61.2809 71.0494 61.1803 70.868 60.9791 70.7754C60.7779 70.6829 60.5618 70.6366 60.3289 70.6366C59.9283 70.6366 59.4159 70.7403 58.7918 70.9457C58.1676 71.1512 57.4559 71.44 56.6529 71.8102C55.5537 73.0245 54.4619 74.3203 53.3738 75.6975C52.2857 77.0747 51.22 78.4389 50.1748 79.7865C49.1296 81.1341 48.1104 82.4299 47.1174 83.6738C46.1243 84.9177 45.1648 86.008 44.2351 86.9447C43.3054 87.8813 42.413 88.631 41.5578 89.1974C40.7026 89.7639 39.894 90.0452 39.1339 90.0452C38.7333 90.0452 38.3942 89.9416 38.1203 89.7361C37.8464 89.5306 37.7086 89.2122 37.7086 88.7791C37.7086 87.935 37.9787 87.015 38.5172 86.0173C39.0556 85.0195 39.7841 83.9959 40.7026 82.9463C41.6211 81.8967 42.6775 80.8472 43.8699 79.7995C45.0642 78.7499 46.32 77.7374 47.6391 76.76C48.96 75.7826 50.2996 74.8682 51.6616 74.013C53.0235 73.1596 54.3165 72.4229 55.5425 71.8065C55.7754 71.4566 55.9859 71.1475 56.1759 70.8809C56.366 70.6144 56.5355 70.3867 56.6827 70.2016C56.8523 69.9758 56.9883 69.7795 57.0945 69.6148C57.0945 69.5333 57.1522 69.4815 57.2696 69.4612C57.3851 69.4408 57.4857 69.4297 57.5714 69.4297C57.7186 69.45 57.8677 69.4667 58.0149 69.476C58.162 69.4871 58.2366 69.5537 58.2366 69.6759C58.2366 69.7573 58.1527 69.9276 57.9832 70.1849C57.8136 70.4422 57.6664 70.6329 57.5398 70.7551L57.3497 70.9402C58.1937 70.57 58.9595 70.2812 59.647 70.0757C60.3326 69.8702 60.9083 69.7666 61.3741 69.7666C61.6703 69.7666 61.9647 69.8647 62.2609 70.059C62.5497 70.2664 62.6988 70.4978 62.6988 70.7643ZM54.937 72.6469C53.8601 73.2226 52.7198 73.8871 51.5162 74.6368C50.3127 75.3883 49.1296 76.1991 47.9688 77.0747C46.8081 77.9484 45.6884 78.8647 44.6115 79.8217C43.5346 80.7787 42.5956 81.7357 41.7925 82.6909C40.9895 83.6479 40.3468 84.5938 39.8605 85.5304C39.3742 86.4671 39.132 87.3463 39.132 88.1682C39.132 88.333 39.1897 88.5273 39.3071 88.755C39.4226 88.9808 39.6611 89.0938 40.0207 89.0938C40.4865 89.0938 41.0827 88.8105 41.8112 88.246C42.5397 87.6795 43.3539 86.9391 44.25 86.0247C45.148 85.1084 46.0833 84.0699 47.054 82.9074C48.0266 81.745 48.9917 80.551 49.9531 79.3274C50.9145 78.1039 51.8218 76.9099 52.677 75.7474C53.5266 74.5868 54.2811 73.5521 54.937 72.6469Z" fill="#DCA370"/>
<path d="M73.2796 73.1097C73.2796 73.193 73.2479 73.2541 73.1845 73.2948L71.7592 73.8501C71.5487 73.9316 71.2785 74.0408 70.9506 74.1741C70.6227 74.3073 70.2687 74.4369 69.8886 74.5591C69.5086 74.6831 69.1378 74.7905 68.7801 74.883C68.4205 74.9756 68.1038 75.0219 67.8299 75.0219C67.3865 75.0219 67.1648 74.8886 67.1648 74.6202C67.1648 74.5387 67.1815 74.4295 67.2132 74.2962C67.2449 74.163 67.3138 74.0241 67.42 73.8797C67.2505 74.0038 67.0194 74.1426 66.7232 74.2962C66.427 74.4499 66.1102 74.5943 65.773 74.7275C65.4358 74.8608 65.0911 74.9793 64.7427 75.0829C64.3943 75.1848 64.0831 75.2366 63.8074 75.2366C63.4068 75.2366 63.1162 75.1588 62.9354 75.0052C62.7566 74.8516 62.6653 74.6609 62.6653 74.4351C62.6653 74.0445 62.8758 73.5613 63.2988 72.9857C63.7217 72.41 64.2601 71.8602 64.9141 71.3345C65.568 70.8106 66.2872 70.3627 67.0679 69.9925C67.8485 69.6222 68.5994 69.4371 69.3167 69.4371C69.6763 69.4371 69.9296 69.4982 70.0768 69.6222C70.224 69.7352 70.2985 69.8999 70.2985 70.1165C70.2985 70.446 70.1458 70.744 69.8383 71.0106C69.5328 71.279 69.2421 71.4937 68.9664 71.6584C68.8826 71.6992 68.8192 71.7195 68.7764 71.7195C68.7335 71.7195 68.6757 71.6936 68.6012 71.6418C68.5267 71.5899 68.4894 71.5233 68.4894 71.4419C68.4894 71.3401 68.5733 71.1846 68.7428 70.9791C68.8267 70.8976 68.9273 70.7792 69.0446 70.6237C69.1602 70.47 69.2198 70.3405 69.2198 70.2387C69.2198 70.1572 69.1825 70.0906 69.108 70.0387C69.0335 69.9869 68.8807 69.961 68.6478 69.961C68.2882 69.961 67.8448 70.0906 67.3175 70.3497C66.7884 70.6089 66.2816 70.931 65.7972 71.3141C65.3109 71.6973 64.8936 72.0953 64.5452 72.5099C64.1968 72.9246 64.0216 73.2874 64.0216 73.5984C64.0216 73.8261 64.1167 73.9982 64.3067 74.1111C64.4967 74.2259 64.7073 74.2814 64.9402 74.2814C65.1731 74.2814 65.4358 74.2296 65.732 74.1278C66.0282 74.026 66.3133 73.9112 66.5872 73.789C66.8611 73.665 67.1107 73.5373 67.3324 73.404C67.5541 73.2707 67.6976 73.1726 67.761 73.1115C67.8038 73.0708 67.8671 73.0097 67.951 72.9264C68.0348 72.845 68.1205 72.8024 68.2044 72.8024C68.2472 72.8024 68.3106 72.8228 68.3944 72.8635C68.4783 72.9042 68.5211 72.9764 68.5211 73.0801C68.4149 73.2448 68.3422 73.3892 68.2994 73.5114C68.2565 73.6354 68.2361 73.7483 68.2361 73.8501C68.2361 74.1185 68.4261 74.2518 68.8062 74.2518C69.0391 74.2518 69.298 74.2166 69.5831 74.1444C69.8682 74.0723 70.1532 73.9908 70.4383 73.8982C70.7233 73.8057 70.9879 73.7131 71.2301 73.6206C71.4723 73.528 71.6586 73.4614 71.7853 73.4207C72.2082 73.2559 72.525 73.1338 72.7355 73.0505C72.8622 72.9894 72.9889 72.9375 73.1156 72.8968C73.1584 72.8968 73.1957 72.9227 73.2274 72.9746C73.2628 73.0227 73.2796 73.069 73.2796 73.1097Z" fill="#DCA370"/>
<path d="M81.1364 73.1412C81.1364 73.2245 81.1047 73.2856 81.0413 73.3263C80.175 73.6762 79.331 73.9853 78.5075 74.2519C77.8107 74.4722 77.0859 74.6813 76.3369 74.8794C75.5861 75.0775 74.9582 75.1774 74.4514 75.1774C73.9651 75.1774 73.5217 75.0238 73.1211 74.7147C72.7206 74.4055 72.5193 73.9631 72.5193 73.3874C72.5193 72.8525 72.7206 72.312 73.1211 71.7677C73.5217 71.2235 74.0136 70.7348 74.5949 70.3017C75.1762 69.8704 75.7929 69.515 76.4487 69.2373C77.1027 68.9596 77.6951 68.8208 78.2224 68.8208C78.3696 68.8208 78.4963 68.8523 78.6025 68.9134C78.8354 69.017 78.9509 69.2429 78.9509 69.5927C78.9509 69.7982 78.8708 70.0036 78.7124 70.2091C78.554 70.4146 78.3789 70.5997 78.1889 70.7644C77.956 70.9495 77.7026 71.1254 77.4287 71.2883C77.4082 71.2883 77.3654 71.2994 77.302 71.3198C77.1753 71.3605 77.0375 71.3809 76.8903 71.3809C76.7841 71.3809 76.7319 71.3087 76.7319 71.1643C76.7319 71.0625 76.7952 70.9477 76.9219 70.8255C77.0915 70.7237 77.3076 70.5368 77.5722 70.2702C77.8367 70.0036 77.969 69.7667 77.969 69.5612C77.969 69.4168 77.8442 69.3447 77.5927 69.3447C77.2778 69.3447 76.9014 69.4539 76.4599 69.6705C76.0202 69.887 75.5954 70.1573 75.1855 70.4775C74.7775 70.7978 74.4309 71.1606 74.1477 71.5641C73.8645 71.9676 73.7229 72.3564 73.7229 72.7284C73.7229 73.2245 73.8962 73.6133 74.2427 73.8928C74.5893 74.1723 75.0867 74.3111 75.7388 74.3111C76.2847 74.3111 76.8623 74.2334 77.4716 74.0797C78.0808 73.9261 78.6472 73.7669 79.1726 73.6022C79.7856 73.3967 80.3874 73.1709 80.978 72.9228C81.0208 72.9228 81.0581 72.9487 81.0898 73.0006C81.1196 73.0542 81.1364 73.1005 81.1364 73.1412Z" fill="#DCA370"/>
<path d="M90.2918 73.1097C90.2918 73.193 90.2602 73.2541 90.1968 73.2948L88.7715 73.8501C88.561 73.9316 88.2908 74.0408 87.9629 74.1741C87.635 74.3073 87.281 74.4369 86.9009 74.5591C86.5208 74.6831 86.1501 74.7905 85.7924 74.883C85.4328 74.9756 85.116 75.0219 84.8422 75.0219C84.3987 75.0219 84.177 74.8886 84.177 74.6202C84.177 74.5387 84.1938 74.4295 84.2255 74.2962C84.2571 74.163 84.3261 74.0241 84.4323 73.8797C84.2627 74.0038 84.0317 74.1426 83.7355 74.2962C83.4392 74.4499 83.1225 74.5943 82.7853 74.7275C82.448 74.8608 82.1034 74.9793 81.755 75.0829C81.4065 75.1848 81.0954 75.2366 80.8197 75.2366C80.4191 75.2366 80.1284 75.1588 79.9477 75.0052C79.7688 74.8516 79.6776 74.6609 79.6776 74.4351C79.6776 74.0445 79.8881 73.5613 80.311 72.9857C80.734 72.41 81.2724 71.8602 81.9264 71.3345C82.5803 70.8106 83.2995 70.3627 84.0801 69.9925C84.8608 69.6222 85.6116 69.4371 86.3289 69.4371C86.6885 69.4371 86.9419 69.4982 87.0891 69.6222C87.2363 69.7352 87.3108 69.8999 87.3108 70.1165C87.3108 70.446 87.158 70.744 86.8506 71.0106C86.5451 71.279 86.2544 71.4937 85.9787 71.6584C85.8948 71.6992 85.8315 71.7195 85.7886 71.7195C85.7458 71.7195 85.688 71.6936 85.6135 71.6418C85.539 71.5899 85.5017 71.5233 85.5017 71.4419C85.5017 71.3401 85.5855 71.1846 85.7551 70.9791C85.8389 70.8976 85.9395 70.7792 86.0569 70.6237C86.1724 70.47 86.2321 70.3405 86.2321 70.2387C86.2321 70.1572 86.1948 70.0906 86.1203 70.0387C86.0457 69.9869 85.893 69.961 85.6601 69.961C85.3005 69.961 84.8571 70.0906 84.3298 70.3497C83.8007 70.6089 83.2939 70.931 82.8095 71.3141C82.3232 71.6973 81.9059 72.0953 81.5575 72.5099C81.2091 72.9246 81.0339 73.2874 81.0339 73.5984C81.0339 73.8261 81.1289 73.9982 81.319 74.1111C81.509 74.2259 81.7196 74.2814 81.9524 74.2814C82.1853 74.2814 82.448 74.2296 82.7443 74.1278C83.0405 74.026 83.3256 73.9112 83.5994 73.789C83.8733 73.665 84.123 73.5373 84.3447 73.404C84.5664 73.2707 84.7099 73.1726 84.7732 73.1115C84.8161 73.0708 84.8794 73.0097 84.9633 72.9264C85.0471 72.845 85.1328 72.8024 85.2167 72.8024C85.2595 72.8024 85.3228 72.8228 85.4067 72.8635C85.4905 72.9042 85.5334 72.9764 85.5334 73.0801C85.4272 73.2448 85.3545 73.3892 85.3117 73.5114C85.2688 73.6354 85.2483 73.7483 85.2483 73.8501C85.2483 74.1185 85.4384 74.2518 85.8184 74.2518C86.0513 74.2518 86.3103 74.2166 86.5954 74.1444C86.8804 74.0723 87.1655 73.9908 87.4506 73.8982C87.7356 73.8057 88.0002 73.7131 88.2424 73.6206C88.4846 73.528 88.6709 73.4614 88.7976 73.4207C89.2205 73.2559 89.5373 73.1338 89.7478 73.0505C89.8745 72.9894 90.0012 72.9375 90.1279 72.8968C90.1707 72.8968 90.208 72.9227 90.2397 72.9746C90.2751 73.0227 90.2918 73.069 90.2918 73.1097Z" fill="#DCA370"/>
<path d="M42.3683 25.074C42.3757 25.0795 42.3832 25.0851 42.3906 25.0906C42.4037 25.1036 42.4074 25.1129 42.4204 25.1258C42.4167 25.1258 42.413 25.1277 42.4093 25.1277C42.6925 25.3702 43.0297 25.5627 43.3688 25.7293C43.5961 25.8403 43.6613 25.944 43.5439 26.1587C43.4899 26.2587 43.4545 26.3679 43.4079 26.4697C42.031 29.437 41.0119 32.5061 40.6598 35.7603C40.4772 37.4411 40.5089 39.1089 41.0212 40.7397C41.4069 41.9707 42.0422 43.0536 43.0912 43.8699C43.2887 44.0236 43.3427 44.2142 43.3967 44.4474C43.5253 45.0139 43.6538 45.5914 43.883 46.1227C44.2668 47.0149 44.9021 47.7128 45.8132 48.1496C45.9082 48.194 45.9865 48.2718 46.0722 48.3347C45.9716 48.3847 45.8728 48.4402 45.7685 48.4828C45.6623 48.5254 45.5356 48.5346 45.4406 48.592C45.3064 48.6753 45.1928 48.7938 45.0717 48.8956C45.2002 48.9641 45.3213 49.0715 45.4574 49.0918C45.8002 49.1418 46.1504 49.1862 46.4951 49.1677C47.1342 49.1344 47.7155 49.1899 48.1403 49.7434C48.2502 49.8859 48.4477 49.9692 48.6116 50.0673C48.7924 50.1747 48.8296 50.2747 48.621 50.3857C48.5185 50.4394 48.4048 50.4801 48.3191 50.5523C48.2278 50.6301 48.1663 50.7411 48.0918 50.8374C48.2092 50.8855 48.3247 50.9485 48.4458 50.9762C48.5557 51.0021 48.6787 50.9836 48.7924 51.0021C49.0178 51.0392 49.2693 51.0429 49.4482 51.1539C49.5208 51.1984 49.4277 51.4908 49.4109 51.6722C49.3886 51.9314 49.5153 52.0425 49.7537 51.924C50.1823 51.7093 50.5903 51.4557 51.0058 51.2187C52.023 50.6412 52.6174 49.7823 52.7888 48.6494C52.8615 48.1663 52.908 47.6776 52.9807 47.1945C53.0198 46.9353 53.2117 46.852 53.4278 46.9964C53.5173 47.0556 53.5657 47.1704 53.6402 47.2537C53.8918 47.5351 54.1358 47.8275 54.406 48.0904C54.5532 48.2329 54.7488 48.3292 54.9221 48.4476C54.7283 48.5439 54.5327 48.6402 54.3389 48.7383C54.3054 48.7549 54.2476 48.7808 54.2476 48.8012C54.2513 48.8975 54.2402 49.0159 54.2942 49.0789C54.3445 49.1381 54.4675 49.1548 54.5606 49.1622C55.0599 49.2084 55.5611 49.2381 56.0604 49.288C56.2449 49.3065 56.4387 49.3362 56.6026 49.4139C56.9678 49.5842 57.3125 49.7915 57.6702 49.9729C57.8472 50.0636 57.9012 50.1673 57.7615 50.3209C57.6329 50.4616 57.4858 50.5875 57.3665 50.7337C57.3162 50.7967 57.2659 50.9262 57.2976 50.9707C57.3423 51.0318 57.469 51.0762 57.5491 51.0614C57.8901 51.0003 58.2329 50.9318 58.5626 50.8318C58.8123 50.7559 58.9148 50.8152 58.9595 51.0632C58.9874 51.2169 59.0806 51.3594 59.1439 51.5075C59.28 51.4149 59.4216 51.3298 59.5482 51.2261C59.6358 51.1539 59.7122 51.0651 59.7755 50.9707C60.5413 49.8415 61.0965 48.629 61.2605 47.2741C61.2977 46.9594 61.4151 46.7798 61.6927 46.6095C62.1306 46.3411 62.546 46.0283 62.9261 45.6858C63.554 45.1212 63.9005 44.3845 64.1334 43.5941C64.2601 43.1628 64.2508 43.1832 64.6402 43.3646C64.9495 43.5089 65.2792 43.6459 65.6146 43.6996C66.7176 43.8736 67.7982 43.0036 67.8653 41.9189C67.9174 41.0933 67.5541 40.4584 66.8927 39.9789C66.2406 39.5069 65.4954 39.2552 64.6886 39.1904C64.4147 39.1682 64.303 39.0793 64.2322 38.8035C64.0999 38.2963 63.9769 37.7576 63.6974 37.3245C62.4007 35.3197 60.4593 34.5016 58.0782 34.6163C57.0218 34.6682 56.0456 35.0291 55.0898 35.4567C54.4768 35.7307 53.8452 35.975 53.2024 36.1768C52.8223 36.2953 52.405 36.3675 52.0081 36.3526C51.03 36.3156 50.6331 35.7214 50.9294 34.8162C50.976 34.6737 51.0337 34.5293 51.1157 34.4053C51.4101 33.9648 51.6802 33.502 52.0268 33.1021C53.1093 31.8545 54.024 30.5143 54.5625 28.9557C54.9165 27.9339 55.086 26.8751 55.2127 25.8089C55.3077 25.0166 55.6487 24.378 56.3343 23.9208C57.6478 23.0452 58.4713 21.8253 58.9632 20.3685C59.198 19.6725 59.2446 18.9636 59.1216 18.249C59.0471 17.814 58.9241 17.7511 58.4825 17.8214C57.7559 17.9381 57.1336 18.2712 56.5747 18.7229C55.93 19.2449 55.3934 19.8595 54.9649 20.5629C54.9277 20.6258 54.8643 20.6721 54.814 20.7276C54.7749 20.6684 54.732 20.6129 54.7004 20.5518C54.5066 20.1853 54.3054 19.8206 54.1247 19.4485C54.0203 19.232 53.8955 19.0061 53.8713 18.7747C53.78 17.9103 53.4763 17.1217 53.0012 16.4035C52.7329 15.9963 52.3864 15.6297 52.0324 15.2854C51.7268 14.9893 51.5088 15.0559 51.3449 15.4557C51.2592 15.6631 51.1884 15.8833 51.1511 16.1036C51.0952 16.4368 51.0635 16.7737 51.043 17.1106C51.03 17.3346 50.9424 17.4012 50.7151 17.3679C50.2773 17.3013 49.8357 17.2569 49.396 17.205C49.3942 17.2198 49.3923 17.2328 49.3904 17.2476C49.2172 17.2476 49.042 17.2457 48.8688 17.2476C48.7719 17.2494 48.675 17.255 48.58 17.268C46.9795 17.4642 45.6996 18.2009 44.7475 19.4652C44.2966 20.065 44.0898 20.7054 44.5668 21.3996C44.6748 21.5569 44.6078 21.6254 44.4308 21.668C44.1122 21.7439 43.788 21.8142 43.488 21.9382C42.7223 22.2548 42.1615 22.7712 41.9379 23.5802C41.8224 23.9985 41.8652 24.378 42.0571 24.7075C42.1428 24.8426 42.2397 24.9629 42.3683 25.074ZM46.4448 47.7368C46.374 47.7368 46.2864 47.7609 46.2324 47.7294C45.9679 47.5813 45.6921 47.4388 45.4536 47.2555C44.6301 46.6151 44.2184 45.7414 44.0227 44.7566C44.0116 44.6955 44.0675 44.6215 44.0917 44.5511C44.3674 44.6733 44.5873 44.8306 44.8239 44.8658C45.5952 44.9806 45.8821 45.4248 45.9734 46.143C46.0331 46.6169 46.279 47.0667 46.4336 47.5295C46.4579 47.5924 46.4429 47.6665 46.4448 47.7368ZM55.1065 47.8572C54.868 47.7054 54.6296 47.5554 54.4097 47.3814C54.3315 47.3185 54.3054 47.1945 54.2551 47.0982C54.3575 47.0667 54.46 47.0371 54.5625 47.0056C54.7879 46.9982 54.9351 47.0778 55.0171 47.2833C55.0804 47.4388 55.1661 47.585 55.2369 47.7368C55.2519 47.7683 55.25 47.8053 55.2556 47.8405C55.2053 47.8479 55.1382 47.8775 55.1065 47.8572ZM51.7212 16.1481C51.7752 15.9278 51.8852 15.9 52.0305 16.0666C52.228 16.2943 52.4422 16.5238 52.5745 16.7867C52.8167 17.2717 53.0068 17.7807 53.2136 18.2824C53.2304 18.3249 53.1987 18.3879 53.1894 18.4397C53.1391 18.423 53.085 18.4138 53.0403 18.3897C52.6565 18.1768 52.2764 17.9621 51.8926 17.7492C51.6076 17.5919 51.602 17.5752 51.5815 16.9736C51.6281 16.6978 51.656 16.4183 51.7212 16.1481ZM44.9897 20.239C45.1294 19.9539 45.312 19.6799 45.5226 19.4393C46.4374 18.3916 47.6409 17.8436 49.0234 17.7863C50.8772 17.7104 52.4851 18.3027 53.6589 19.7743C54.1358 20.3722 54.3631 21.0645 54.3016 21.8364C54.2867 22.0215 54.2905 22.2141 54.3315 22.3936C54.3706 22.5658 54.5848 22.6028 54.6873 22.4566C54.7823 22.3196 54.8457 22.1567 54.9053 21.9993C55.3301 20.8572 56.0157 19.8872 56.9976 19.1413C57.3721 18.858 57.8286 18.6748 58.2552 18.4619C58.4639 18.3582 58.6167 18.4619 58.6129 18.6711C58.6036 19.0802 58.6129 19.5041 58.5067 19.8928C58.1192 21.3126 57.4243 22.5528 56.1182 23.3784C55.1419 23.9967 54.7227 24.9092 54.6258 25.9903C54.3985 28.5133 53.4278 30.7198 51.7063 32.6172C51.1548 33.2262 50.648 33.8741 50.4077 34.6682C50.322 34.9514 50.2531 35.2624 50.2829 35.5493C50.3611 36.3045 50.8586 36.7562 51.6486 36.8543C52.4739 36.9561 53.2676 36.8228 54.0315 36.5137C54.7805 36.2101 55.522 35.8843 56.2766 35.5974C57.7578 35.0347 59.252 34.9773 60.7406 35.5715C61.9088 36.0361 62.8218 36.7784 63.3751 37.9094C63.595 38.3611 63.7105 38.8238 63.7123 39.3255C63.7123 39.7327 63.7664 39.7512 64.1986 39.7401C65.2997 39.7087 66.2648 40.016 66.9654 40.8897C67.5504 41.619 67.3809 42.5205 66.5965 42.9869C66.222 43.2091 65.8233 43.2054 65.4208 43.0925C65.2364 43.0406 65.0668 42.9407 64.8917 42.8648C64.5452 42.7148 64.3048 42.5001 64.3868 42.0855C64.3905 42.067 64.3868 42.0484 64.3849 42.0299C64.3607 41.843 64.3644 41.6005 64.1111 41.606C63.8726 41.6097 63.8372 41.8485 63.8223 42.0355C63.7664 42.7537 63.6434 43.4534 63.3509 44.1217C62.995 44.9324 62.3914 45.5248 61.6536 46.0024C61.3723 46.1838 61.3294 46.1467 61.281 45.795C61.199 45.199 61.117 44.6011 61.0164 44.0087C60.9866 43.8273 60.9065 43.6496 60.8208 43.4849C60.7854 43.4201 60.6587 43.3535 60.5897 43.3683C60.5245 43.3812 60.4332 43.4978 60.4351 43.5663C60.4388 43.8088 60.4742 44.0513 60.5022 44.2938C60.5916 45.0787 60.7407 45.8617 60.7518 46.6465C60.7593 47.1797 60.6326 47.735 60.4575 48.244C60.0327 49.4768 58.857 49.947 57.6609 49.3806C56.4144 48.7901 55.7046 47.7572 55.3413 46.4929C54.9258 45.0453 55.1345 43.6182 55.5854 42.2132C55.8741 41.3117 56.2822 40.4584 56.7591 39.6365C56.8076 39.555 56.8802 39.4754 56.8933 39.3884C56.9082 39.2885 56.8933 39.1052 56.8486 39.0923C56.7424 39.0589 56.5765 39.0626 56.4927 39.1256C56.3604 39.2255 56.2561 39.3736 56.1722 39.5199C55.2276 41.1692 54.5998 42.9166 54.5569 44.8251C54.5476 45.236 54.6277 45.6488 54.6799 46.0597C54.7264 46.4226 54.7041 46.4744 54.3576 46.4762C54.0483 46.4781 53.7371 46.467 53.4316 46.43C53.0273 46.38 52.9695 46.3059 52.9118 45.8894C52.772 44.8954 52.5205 43.931 52.0584 43.0277C51.9485 42.8129 51.779 42.6241 51.6187 42.439C51.5722 42.3853 51.425 42.3483 51.3765 42.3798C51.3132 42.4205 51.2629 42.5464 51.2796 42.6204C51.315 42.7833 51.3803 42.9425 51.4566 43.0925C52.1423 44.4326 52.5112 45.8487 52.3994 47.3462C52.3491 48.0163 52.1982 48.6864 52.0193 49.338C51.8572 49.9322 51.5852 50.0673 50.9592 50.1025C49.4463 50.1877 48.3601 49.4657 47.5515 48.3218C46.3498 46.6225 46.1039 44.7048 46.3479 42.7019C46.3852 42.4039 46.4541 42.1095 46.497 41.8115C46.5156 41.6819 46.5342 41.5431 46.5007 41.4209C46.4765 41.3321 46.3852 41.2377 46.2976 41.1951C46.2622 41.1784 46.1262 41.2802 46.0927 41.3524C46.0144 41.5227 45.938 41.7041 45.9175 41.8874C45.83 42.6334 45.7536 43.3812 45.6958 44.1309C45.6642 44.5456 45.6548 44.5789 45.2748 44.4419C43.7135 43.8829 42.5527 42.887 41.8671 41.4024C41.2839 40.1418 41.0976 38.8053 41.1554 37.5503C41.1218 35.4345 41.5373 33.502 42.0758 31.5917C42.5509 29.8998 43.2067 28.269 43.9314 26.6641C43.978 26.5604 44.0451 26.4642 44.0824 26.3586C44.183 26.0625 44.3823 25.9699 44.7009 25.9773C45.5356 26.0014 46.3051 25.7904 46.9833 25.2943C47.5739 24.8611 47.9353 24.3187 47.9372 23.5783C47.9372 23.4765 47.9726 23.3747 47.9931 23.271C48.0844 23.3358 48.1775 23.3969 48.267 23.4654C48.6172 23.7301 48.9433 24.0318 49.3196 24.2558C49.9102 24.6112 50.5605 24.6445 51.2163 24.4224C51.5442 24.3113 51.7864 24.0966 51.8572 23.7542C51.8759 23.6616 51.833 23.508 51.7622 23.4635C51.7026 23.4247 51.5144 23.4691 51.4697 23.532C51.2964 23.7875 51.0654 23.9319 50.7617 23.9707C50.3686 24.0226 49.9792 23.9985 49.6382 23.7912C49.3289 23.6024 49.0402 23.3784 48.7588 23.1526C48.4458 22.9027 48.1533 22.6269 47.8459 22.3696C47.354 21.9568 46.8025 21.6643 46.156 21.5477C45.8933 21.4995 45.6269 21.4255 45.3847 21.3144C44.8798 21.0793 44.7494 20.7332 44.9897 20.239ZM43.3166 24.2928C43.4899 23.9596 43.7694 23.8689 44.1252 23.8578C44.5295 23.8449 44.9338 23.8023 45.3344 23.7449C45.4424 23.7301 45.6064 23.6246 45.6194 23.5413C45.6493 23.3599 45.4909 23.2895 45.3176 23.2858C45.1443 23.2821 44.9692 23.2858 44.7959 23.2858C44.7959 23.2784 44.7941 23.271 44.7941 23.2636C44.4885 23.2969 44.1811 23.3266 43.8756 23.3673C43.6576 23.3951 43.5122 23.3599 43.4508 23.1137C43.3595 22.7416 43.3632 22.5861 43.6278 22.4917C44.0041 22.3566 44.3972 22.2381 44.7922 22.1844C45.3959 22.1011 45.9734 22.2233 46.5342 22.4788C47.5198 22.9267 47.5944 23.8911 46.918 24.6242C46.0442 25.5701 44.0395 25.7108 43.0111 24.9222C42.8862 24.8278 42.7316 24.7389 43.0185 24.6242C43.1452 24.5705 43.2495 24.4206 43.3166 24.2928ZM42.454 23.9874C42.4782 23.7893 42.5397 23.5894 42.6217 23.4043C42.6664 23.3025 42.7856 23.2322 42.8695 23.147C42.9253 23.2599 42.9812 23.3747 43.039 23.495C42.9738 23.7042 42.9235 23.9023 42.849 24.0911C42.7968 24.2225 42.672 24.4557 42.6459 24.4483C42.426 24.3761 42.4316 24.1633 42.454 23.9874Z" fill="#9CA9AE"/>
<path d="M56.0362 22.462C57.1727 21.7845 57.8155 20.7812 58.0447 19.4744C58.0093 19.3374 58.0056 19.069 57.9236 19.0431C57.7727 18.9968 57.5733 19.0875 57.3982 19.1338C57.3274 19.1523 57.264 19.206 57.2007 19.2504C56.202 19.9723 55.6263 20.9349 55.4978 22.1399C55.4549 22.5268 55.6822 22.673 56.0362 22.462ZM56.3064 21.3495C56.5803 20.909 56.8597 20.4721 57.1411 20.0371C57.156 20.0149 57.2063 20.013 57.2398 20.0019C57.2491 20.0352 57.2752 20.076 57.2659 20.1C57.061 20.5813 56.8392 21.0533 56.4331 21.4143C56.42 21.4273 56.4014 21.4328 56.3567 21.4606C56.3362 21.4217 56.2933 21.3699 56.3064 21.3495Z" fill="#9CA9AE"/>
<path d="M46.6088 25.8921C46.402 25.8329 46.1858 25.807 45.9678 25.7866C45.6884 25.8366 45.4033 25.8681 45.1089 25.8607C45.8579 26.1087 48.2744 26.7751 50.1375 26.5937C50.2754 26.5622 50.3015 26.416 50.1711 26.2679C48.9265 26.4401 47.79 26.2364 46.6088 25.8921Z" fill="#DCA370"/>
<path d="M32.9613 24.7742C32.9594 24.6205 33.1942 24.3817 33.3693 24.3206C33.8388 24.1559 34.3382 24.0671 34.8244 23.9486C35.0275 23.9097 35.2287 23.8708 35.4318 23.832C35.497 23.8246 35.5641 23.8153 35.6293 23.8079C35.7131 23.7783 35.797 23.7487 35.879 23.719C35.9628 23.7302 36.4714 23.9153 36.5721 24.0596C36.5758 24.0596 36.4342 24.1874 36.436 24.1874C36.2739 24.6353 35.9069 25.422 35.8678 25.4757C35.7169 25.6664 35.5902 25.7941 35.2697 25.796C34.9176 25.7997 34.4891 25.9589 34.2301 26.194C33.6879 26.6882 33.1737 27.2343 32.7694 27.8377C32.4899 28.2542 32.4154 28.8003 32.2421 29.313C32.7731 29.1983 33.1774 29.0446 33.5873 29.0354C34.6158 29.0095 35.2977 28.4208 35.6722 27.6322C35.974 26.9936 35.797 26.4235 35.9162 25.7034C35.9162 25.7034 35.9181 25.7016 35.92 25.6979C35.9349 25.6719 36.0001 25.5535 36.0373 25.4942C36.0578 25.4591 36.3559 24.7686 36.4174 24.7075C36.4211 24.7038 36.4249 24.7001 36.4286 24.6964C36.464 24.6501 36.5068 24.3706 36.613 24.2244C36.8403 23.9134 37.0695 23.8949 37.3136 23.8912C37.8762 23.8838 38.4464 23.9338 39.0016 24.0319C39.8828 24.1874 41.0082 24.2633 41.9025 24.7908C41.7068 24.6761 41.1181 26.0921 40.7212 26.5956C40.6859 26.6419 40.3654 26.5494 40.2611 26.5308C39.4301 26.3846 38.6942 26.79 38.2451 27.2972C37.716 27.8951 36.764 29.7036 36.6671 29.9776C36.9465 30.0146 38.8227 29.487 39.5177 29.1409C39.8251 28.9891 40.0859 28.7225 40.3244 28.4671C40.7399 28.0228 40.7939 27.2916 40.8237 26.74C40.9914 26.4994 41.0641 26.4087 41.2373 26.1736C41.4423 25.8959 41.6249 25.5942 41.8801 25.3665C42.0199 25.2425 42.2546 25.1314 42.4428 25.1277C42.4409 25.1259 42.4391 25.124 42.4372 25.124C42.2919 25 42.1801 24.863 42.0962 24.7168C42.0608 24.6613 42.0292 24.6057 42.0012 24.5465C41.7255 24.4558 40.9933 24.1874 40.6188 23.7339C40.5163 23.5987 40.7604 22.9027 39.7897 21.2849C38.8637 19.7392 36.6969 19.0247 36.6335 19.0969C36.5422 19.1987 36.7304 20.4093 36.9037 20.8128C38.0029 23.3488 40.5964 23.8301 40.6896 24.0411C40.4586 24.0411 39.9369 23.9227 39.7673 23.9005C38.8991 23.7857 38.0365 23.5987 37.1664 23.558C36.3522 24.0374 35.5734 22.8935 35.5399 22.8916C35.5399 22.8916 35.3405 20.6611 32.5812 19.7929C32.1806 19.667 30.4684 19.7003 30.4684 19.7003C30.4684 19.7003 32.0223 20.6629 32.2794 21.5977C32.2868 21.6255 33.2557 22.4881 34.1966 22.688C34.5375 22.7509 35.0853 22.8583 35.4262 22.9231C35.5231 23.0249 35.851 23.4062 35.8771 23.5321C35.2753 23.6654 34.9325 23.6672 34.327 23.7838C33.7569 23.893 33.5221 24.2707 32.9483 24.18C32.1657 24.0578 30.5802 24.2207 30.1741 25C30.0343 25.2684 29.8685 25.5257 29.6971 25.7756C29.2518 26.4198 28.9183 27.101 28.8885 27.8081C29.507 27.5989 30.1163 27.349 30.7479 27.188C31.8565 26.9029 32.9799 26.0403 32.9613 24.7742Z" fill="#DCA370"/>
<path d="M102.141 54.8729C102.141 54.8729 102.066 54.703 102.021 54.4375C101.975 54.1717 101.96 53.811 102.081 53.4208C102.322 52.642 103.161 52.3979 103.161 52.3979C103.161 52.3979 103.275 52.6847 103.296 53.0753C103.317 53.4656 103.246 53.96 102.878 54.3548C102.388 54.8793 102.141 54.8729 102.141 54.8729Z" fill="#C2CEC1"/>
<path d="M104.39 57.2669C104.39 57.2669 104.482 57.101 104.555 56.8285C104.629 56.5563 104.682 56.1766 104.603 55.7573C104.522 55.3379 104.287 55.0572 104.05 54.8822C103.819 54.7072 103.612 54.6376 103.612 54.6376C103.612 54.6376 103.58 54.7087 103.543 54.8283C103.509 54.9482 103.46 55.116 103.428 55.3104C103.367 55.6997 103.387 56.1939 103.712 56.6378C104.145 57.2312 104.39 57.2669 104.39 57.2669Z" fill="#C2CEC1"/>
<path d="M101.658 59.7198C101.658 59.7198 101.6 59.5436 101.582 59.275C101.564 59.0061 101.585 58.6461 101.745 58.2698C101.905 57.8934 102.199 57.6666 102.454 57.5319C102.703 57.3968 102.914 57.356 102.914 57.356C102.914 57.356 102.939 57.4301 102.964 57.5537C102.983 57.6766 102.999 57.8486 102.99 58.0439C102.971 58.4342 102.85 58.9192 102.444 59.2762C101.903 59.7504 101.658 59.7198 101.658 59.7198Z" fill="#C2CEC1"/>
<path d="M103.661 62.3216C103.661 62.3216 103.77 62.1656 103.87 61.9013C103.97 61.6376 104.062 61.2648 104.026 60.84C104.008 60.6278 103.945 60.4455 103.862 60.2923C103.773 60.1382 103.663 60.0128 103.556 59.9147C103.344 59.7182 103.146 59.6289 103.146 59.6289C103.146 59.6289 103.107 59.6964 103.058 59.8118C103.006 59.9268 102.956 60.0916 102.902 60.2814C102.801 60.6626 102.772 61.1564 103.05 61.6294C103.421 62.2622 103.661 62.3216 103.661 62.3216Z" fill="#C2CEC1"/>
<path d="M100.699 64.495C100.699 64.495 100.659 64.314 100.669 64.0454C100.678 63.7762 100.735 63.4201 100.932 63.0616C101.127 62.7028 101.449 62.5069 101.709 62.3964C101.968 62.2859 102.183 62.2662 102.183 62.2662C102.183 62.2662 102.258 62.5733 102.193 62.959C102.135 63.3454 101.966 63.8162 101.526 64.1314C100.94 64.5495 100.699 64.495 100.699 64.495Z" fill="#C2CEC1"/>
<path d="M102.434 67.2813C102.434 67.2813 102.558 67.1369 102.685 66.8838C102.811 66.6313 102.94 66.2694 102.946 65.8431C102.949 65.63 102.908 65.4431 102.836 65.2815C102.762 65.1192 102.665 64.9838 102.569 64.8754C102.378 64.6589 102.189 64.5505 102.189 64.5505C102.189 64.5505 102.144 64.6138 102.083 64.724C102.021 64.8336 101.952 64.9917 101.884 65.1767C101.746 65.5461 101.667 66.0345 101.896 66.5326C102.201 67.1987 102.434 67.2813 102.434 67.2813Z" fill="#C2CEC1"/>
<path d="M99.271 69.1527C99.271 69.1527 99.2497 68.9689 99.2854 68.7022C99.3213 68.4354 99.4143 68.0866 99.6462 67.7493C99.8757 67.4111 100.217 67.2485 100.484 67.1634C100.753 67.0789 100.969 67.0804 100.969 67.0804C100.969 67.0804 100.979 67.158 100.978 67.2839C100.981 67.4108 100.959 67.5813 100.912 67.7711C100.816 68.1499 100.6 68.6016 100.13 68.872C99.5051 69.2305 99.271 69.1527 99.271 69.1527Z" fill="#C2CEC1"/>
<path d="M100.719 72.0956C100.719 72.0956 100.858 71.9639 101.008 71.7247C101.159 71.4858 101.323 71.1385 101.372 70.715C101.396 70.503 101.374 70.3132 101.319 70.1451C101.261 69.9762 101.178 69.832 101.094 69.7149C100.925 69.4808 100.748 69.3542 100.748 69.3542C100.748 69.3542 100.696 69.413 100.625 69.5165C100.552 69.6195 100.467 69.77 100.381 69.9471C100.207 70.3013 100.08 70.7794 100.258 71.2975C100.496 71.9903 100.719 72.0956 100.719 72.0956Z" fill="#C2CEC1"/>
<path d="M97.3861 73.6473C97.3861 73.6473 97.3828 73.462 97.445 73.2004C97.5071 72.9385 97.6342 72.6003 97.8981 72.2872C98.1605 71.9736 98.5147 71.8443 98.7914 71.787C99.0675 71.7295 99.2823 71.7522 99.2823 71.7522C99.2823 71.7522 99.2942 72.0677 99.1549 72.4332C99.0218 72.8008 98.763 73.2292 98.269 73.4523C97.6114 73.7478 97.3861 73.6473 97.3861 73.6473Z" fill="#C2CEC1"/>
<path d="M98.535 76.7184C98.535 76.7184 98.6853 76.6009 98.8587 76.3775C99.0324 76.1543 99.2295 75.8246 99.32 75.4076C99.3652 75.1993 99.3594 75.0071 99.3246 74.836C99.285 74.6628 99.2164 74.5108 99.1439 74.3861C98.9988 74.1363 98.8355 73.993 98.8355 73.993C98.8355 73.993 98.7782 74.0463 98.6971 74.1423C98.6133 74.2371 98.5173 74.38 98.4095 74.5459C98.2016 74.8814 98.0279 75.345 98.1547 75.8785C98.3229 76.5918 98.535 76.7184 98.535 76.7184Z" fill="#C2CEC1"/>
<path d="M95.0642 77.9359C95.0642 77.9359 95.0791 77.7512 95.1666 77.4966C95.2541 77.2417 95.4135 76.9174 95.7066 76.6312C95.9998 76.3451 96.36 76.2488 96.6471 76.2219C96.9275 76.1916 97.139 76.2352 97.139 76.2352C97.139 76.2352 97.1326 76.313 97.1073 76.4363C97.0798 76.5583 97.0259 76.7221 96.9424 76.8992C96.7742 77.2523 96.4746 77.6537 95.9614 77.8275C95.2784 78.058 95.0642 77.9359 95.0642 77.9359Z" fill="#C2CEC1"/>
<path d="M95.9028 81.1044C95.9028 81.1044 96.0638 81.0021 96.2582 80.7965C96.4526 80.5912 96.6809 80.2821 96.8116 79.8757C96.9427 79.4697 96.8643 79.1085 96.74 78.8432C96.6202 78.5804 96.4718 78.4218 96.4718 78.4218C96.4718 78.4218 96.4096 78.4693 96.3194 78.5571C96.2301 78.6452 96.1128 78.7736 95.9903 78.9286C95.7508 79.2426 95.5329 79.6874 95.6066 80.2312C95.7045 80.9576 95.9028 81.1044 95.9028 81.1044Z" fill="#C2CEC1"/>
<path d="M92.3293 81.9776C92.3293 81.9776 92.3623 81.795 92.4738 81.5498C92.5856 81.3042 92.7758 80.9966 93.0952 80.7401C93.4146 80.4837 93.7818 80.4222 94.0704 80.4237C94.2155 80.4252 94.3374 80.4404 94.4236 80.4558C94.5105 80.4713 94.5617 80.4873 94.5617 80.4873C94.5617 80.4873 94.5574 80.5064 94.5501 80.5409C94.5419 80.5751 94.53 80.6251 94.508 80.6829C94.466 80.8001 94.3986 80.9591 94.2974 81.1271C94.0957 81.4623 93.7586 81.8335 93.2317 81.957C92.5302 82.1199 92.3293 81.9776 92.3293 81.9776Z" fill="#C2CEC1"/>
<path d="M92.8511 85.213C92.8511 85.213 93.0208 85.1264 93.2341 84.9405C93.4472 84.7549 93.7044 84.4687 93.8738 84.0766C94.0414 83.683 94.0036 83.3197 93.9073 83.0444C93.8138 82.771 93.6815 82.5988 93.6815 82.5988C93.6815 82.5988 93.6151 82.6399 93.5169 82.7187C93.4216 82.7992 93.2835 82.9091 93.1494 83.0538C92.8806 83.3436 92.621 83.7657 92.6414 84.3143C92.6679 85.0473 92.8511 85.213 92.8511 85.213Z" fill="#C2CEC1"/>
<path d="M89.2056 85.7322C89.2056 85.7322 89.2209 85.6898 89.2507 85.6166C89.2803 85.5427 89.3266 85.4397 89.394 85.3226C89.529 85.0888 89.7478 84.8006 90.0903 84.5756C90.7742 84.1269 91.5772 84.4687 91.5772 84.4687C91.5772 84.4687 91.4815 84.7618 91.2481 85.0773C91.015 85.3919 90.6438 85.7292 90.108 85.8016C89.397 85.8979 89.2056 85.7322 89.2056 85.7322Z" fill="#C2CEC1"/>
<path d="M89.4092 89.0051C89.4092 89.0051 89.5863 88.9351 89.8163 88.7704C90.0464 88.6057 90.3295 88.3456 90.5362 87.9711C90.7428 87.5965 90.7346 87.2253 90.6736 86.9492C90.6075 86.6682 90.4929 86.4835 90.4929 86.4835C90.4929 86.4835 90.4228 86.518 90.3177 86.5871C90.2098 86.6537 90.0626 86.7503 89.9154 86.882C89.6201 87.1448 89.3208 87.5405 89.2882 88.0895C89.2434 88.8228 89.4092 89.0051 89.4092 89.0051Z" fill="#C2CEC1"/>
<path d="M85.7269 89.1639C85.7269 89.1639 85.7451 89.1222 85.7842 89.054C85.8244 88.9874 85.8798 88.8884 85.9582 88.7782C86.1151 88.5581 86.3604 88.2919 86.7228 88.1006C87.4463 87.7191 88.2118 88.1369 88.2118 88.1369C88.2118 88.1369 88.0881 88.4197 87.8251 88.7113C87.5627 89.0026 87.1613 89.3029 86.6213 89.3235C86.2629 89.3384 86.0398 89.2975 85.9039 89.2521C85.7698 89.2082 85.7269 89.1639 85.7269 89.1639Z" fill="#C2CEC1"/>
<path d="M85.6107 92.4448C85.6107 92.4448 85.7939 92.3924 86.0389 92.2504C86.2836 92.1084 86.5905 91.8765 86.8322 91.5228C87.0739 91.1692 87.1019 90.7989 87.0684 90.5179C87.0361 90.2381 86.9379 90.041 86.9379 90.041C86.9379 90.041 86.8666 90.0707 86.7502 90.124C86.635 90.1782 86.4802 90.2617 86.3208 90.3783C86.0017 90.6118 85.6659 90.9775 85.58 91.5213C85.4638 92.2474 85.6107 92.4448 85.6107 92.4448Z" fill="#C2CEC1"/>
<path d="M81.9276 92.2418C81.9276 92.2418 81.9498 92.2018 81.9952 92.1376C82.0394 92.0719 82.1116 91.9883 82.1985 91.8842C82.3758 91.6798 82.6459 91.4382 83.0247 91.2819C83.7811 90.971 84.5015 91.4609 84.5015 91.4609C84.5015 91.4609 84.3509 91.7307 84.0614 91.9962C83.7722 92.2614 83.3437 92.5224 82.8052 92.4912C82.4487 92.4734 82.2235 92.4013 82.0955 92.3465C81.966 92.2899 81.9276 92.2418 81.9276 92.2418Z" fill="#C2CEC1"/>
<path d="M81.4886 95.4951C81.4886 95.4951 81.5365 95.4881 81.6175 95.4675C81.6971 95.4448 81.8077 95.4058 81.9363 95.347C82.1935 95.2289 82.5214 95.0273 82.796 94.6982C83.347 94.039 83.0481 93.2351 83.0481 93.2351C83.0481 93.2351 82.7387 93.3069 82.3992 93.5085C82.0591 93.7108 81.6895 94.0429 81.5511 94.5767C81.4579 94.9316 81.4444 95.1666 81.4496 95.3037C81.4563 95.443 81.4886 95.4951 81.4886 95.4951Z" fill="#C2CEC1"/>
<path d="M77.8438 94.9351C77.8438 94.9351 77.9477 94.7846 78.1507 94.6093C78.3473 94.4231 78.6392 94.2078 79.0311 94.0888C79.8134 93.8517 80.4818 94.4085 80.4818 94.4085C80.4818 94.4085 80.3056 94.6632 79.9917 94.8997C79.6784 95.1361 79.2268 95.355 78.6944 95.2724C78.3384 95.2149 78.1221 95.1222 78.0002 95.0556C77.877 94.9869 77.8438 94.9351 77.8438 94.9351Z" fill="#C2CEC1"/>
<path d="M77.0853 98.1293C77.0853 98.1293 77.1334 98.1269 77.2163 98.1145C77.2998 98.1036 77.4141 98.0763 77.5476 98.0294C77.8148 97.9364 78.1607 97.7669 78.4664 97.4656C79.079 96.8619 78.8608 96.0322 78.8608 96.0322C78.8608 96.0322 78.5463 96.0737 78.1888 96.2424C77.8307 96.411 77.4305 96.7065 77.2404 97.2249C77.177 97.3978 77.1355 97.5416 77.1093 97.6597C77.0819 97.7757 77.0694 97.8653 77.0657 97.9352C77.0581 98.0742 77.0853 98.1293 77.0853 98.1293Z" fill="#C2CEC1"/>
<path d="M73.5139 97.216C73.5139 97.216 73.6321 97.0762 73.8512 96.9211C74.0688 96.7625 74.3775 96.5705 74.7798 96.4915C75.581 96.3307 76.1908 96.9499 76.1908 96.9499C76.1908 96.9499 75.9906 97.1864 75.655 97.392C75.3201 97.5973 74.8493 97.7716 74.3282 97.6381C73.6242 97.4371 73.5139 97.216 73.5139 97.216Z" fill="#C2CEC1"/>
<path d="M72.442 100.321C72.442 100.321 72.4905 100.323 72.5737 100.318C72.6569 100.314 72.7763 100.304 72.9132 100.269C73.1881 100.202 73.5489 100.067 73.8829 99.7964C74.5521 99.2544 74.4171 98.4072 74.4171 98.4072C74.4171 98.4072 74.0999 98.4181 73.7281 98.5513C73.3554 98.6846 72.9281 98.9401 72.6877 99.4379C72.5286 99.7731 72.4628 99.9868 72.442 100.125C72.4207 100.263 72.442 100.321 72.442 100.321Z" fill="#C2CEC1"/>
<path d="M68.9791 99.0616C68.9791 99.0616 69.1108 98.9338 69.3442 98.8009C69.5783 98.6689 69.9031 98.5042 70.3112 98.4657C71.124 98.3833 71.6692 99.0595 71.6692 99.0595C71.6692 99.0595 71.4464 99.2753 71.0923 99.4473C70.7385 99.6187 70.2536 99.7483 69.7474 99.5621C69.0666 99.2911 68.9791 99.0616 68.9791 99.0616Z" fill="#C2CEC1"/>
<path d="M67.6035 102.046C67.6035 102.046 67.6513 102.053 67.7349 102.056C67.8177 102.059 67.9384 102.064 68.078 102.042C68.3584 102.003 68.7308 101.903 69.0898 101.666C69.8096 101.192 69.7593 100.335 69.7593 100.335C69.7593 100.335 69.4427 100.315 69.0593 100.412C68.6753 100.508 68.2246 100.721 67.936 101.193C67.7443 101.511 67.6568 101.714 67.6227 101.851C67.588 101.986 67.6035 102.046 67.6035 102.046Z" fill="#C2CEC1"/>
<path d="M64.2832 100.452C64.2832 100.452 64.427 100.338 64.6724 100.229C64.9186 100.121 65.2578 99.9887 65.668 99.9905C66.4851 99.9884 66.9602 100.714 66.9602 100.714C66.9602 100.714 66.717 100.908 66.3476 101.044C65.9786 101.18 65.4833 101.262 64.9982 101.026C64.3475 100.689 64.2832 100.452 64.2832 100.452Z" fill="#C2CEC1"/>
<path d="M62.6171 103.287C62.6171 103.287 62.664 103.298 62.7466 103.31C62.8292 103.322 62.948 103.337 63.0891 103.328C63.372 103.317 63.7526 103.255 64.1335 103.054C64.8969 102.654 64.9326 101.796 64.9326 101.796C64.9326 101.796 64.6196 101.745 64.2283 101.803C63.8367 101.861 63.3671 102.028 63.0325 102.47C62.81 102.767 62.7033 102.964 62.6555 103.095C62.6073 103.226 62.6171 103.287 62.6171 103.287Z" fill="#C2CEC1"/>
<path d="M59.4718 101.375C59.4718 101.375 59.6263 101.276 59.8814 101.192C60.1362 101.103 60.4878 101.009 60.8956 101.051C61.709 101.13 62.1094 101.899 62.1094 101.899C62.1094 101.899 61.8483 102.067 61.467 102.166C61.0864 102.265 60.5848 102.295 60.1258 102.016C59.5123 101.619 59.4718 101.375 59.4718 101.375Z" fill="#C2CEC1"/>
<path d="M57.5323 104.034C57.5323 104.034 57.7149 104.105 57.9974 104.118C58.2799 104.134 58.6648 104.11 59.0637 103.949C59.8634 103.627 59.9841 102.777 59.9841 102.777C59.9841 102.777 59.6775 102.695 59.2825 102.714C58.8867 102.733 58.4027 102.852 58.0263 103.258C57.7752 103.529 57.6506 103.725 57.5896 103.848C57.5287 103.973 57.5323 104.034 57.5323 104.034Z" fill="#C2CEC1"/>
<path d="M54.5908 101.826C54.5908 101.826 54.6317 101.805 54.7054 101.777C54.7792 101.748 54.8858 101.717 55.0166 101.682C55.2786 101.61 55.6383 101.558 56.0402 101.638C56.8423 101.798 57.1648 102.603 57.1648 102.603C57.1648 102.603 56.8884 102.744 56.4989 102.805C56.11 102.865 55.6081 102.845 55.1787 102.521C55.0358 102.415 54.9279 102.316 54.8459 102.226C54.7642 102.139 54.7088 102.065 54.671 102.006C54.5954 101.887 54.5908 101.826 54.5908 101.826Z" fill="#C2CEC1"/>
<path d="M52.3997 104.287C52.3997 104.287 52.5746 104.361 52.8544 104.406C53.1338 104.451 53.5193 104.465 53.932 104.345C54.7591 104.105 54.9629 103.272 54.9629 103.272C54.9629 103.272 54.6661 103.16 54.2708 103.139C53.875 103.117 53.3816 103.188 52.9671 103.553C52.4125 104.041 52.3997 104.287 52.3997 104.287Z" fill="#C2CEC1"/>
<path d="M49.9082 101.818C49.9082 101.818 50.0792 101.743 50.3464 101.698C50.614 101.653 50.9773 101.638 51.3698 101.758C52.1536 101.998 52.3993 102.831 52.3993 102.831C52.3993 102.831 52.1107 102.944 51.7175 102.965C51.3247 102.986 50.827 102.915 50.4296 102.55C49.9018 102.063 49.9082 101.818 49.9082 101.818Z" fill="#C2CEC1"/>
<path d="M47.4985 104.052C47.4985 104.052 47.6655 104.144 47.9398 104.217C48.2138 104.289 48.596 104.342 49.018 104.264C49.4401 104.183 49.7226 103.95 49.8988 103.715C50.0749 103.485 50.145 103.279 50.145 103.279C50.145 103.279 50.0734 103.248 49.953 103.211C49.8323 103.177 49.6635 103.128 49.4679 103.096C49.0759 103.035 48.5786 103.056 48.1318 103.378C47.5345 103.808 47.4985 104.052 47.4985 104.052Z" fill="#C2CEC1"/>
<path d="M45.0298 101.338C45.0298 101.338 45.2071 101.28 45.4774 101.263C45.7481 101.244 46.1104 101.266 46.4892 101.425C46.868 101.583 47.0963 101.876 47.2319 102.129C47.3678 102.377 47.409 102.586 47.409 102.586C47.409 102.586 47.3343 102.611 47.21 102.635C47.0862 102.654 46.9131 102.67 46.7166 102.661C46.3237 102.643 45.8355 102.523 45.4762 102.119C44.999 101.581 45.0298 101.338 45.0298 101.338Z" fill="#C2CEC1"/>
<path d="M42.4109 103.327C42.4109 103.327 42.5679 103.436 42.8339 103.535C43.0994 103.635 43.4745 103.726 43.9021 103.69C44.1157 103.672 44.2992 103.61 44.4534 103.528C44.6085 103.44 44.7347 103.329 44.8334 103.224C45.0312 103.013 45.1211 102.816 45.1211 102.816C45.1211 102.816 45.0532 102.777 44.9371 102.728C44.8212 102.677 44.6555 102.627 44.4644 102.573C44.0807 102.474 43.5836 102.444 43.1076 102.721C42.4707 103.089 42.4109 103.327 42.4109 103.327Z" fill="#C2CEC1"/>
<path d="M40.2234 100.385C40.2234 100.385 40.4057 100.346 40.676 100.355C40.9469 100.364 41.3053 100.421 41.6661 100.617C42.0273 100.811 42.2244 101.131 42.3357 101.388C42.4469 101.646 42.4667 101.859 42.4667 101.859C42.4667 101.859 42.1577 101.934 41.7694 101.87C41.3806 101.812 40.9067 101.644 40.5894 101.207C40.1686 100.624 40.2234 100.385 40.2234 100.385Z" fill="#C2CEC1"/>
<path d="M37.4191 102.109C37.4191 102.109 37.5645 102.232 37.8193 102.358C38.0734 102.483 38.4376 102.611 38.8667 102.618C39.0813 102.62 39.2693 102.58 39.432 102.508C39.5954 102.435 39.7316 102.339 39.8407 102.243C40.0586 102.053 40.1677 101.866 40.1677 101.866C40.1677 101.866 40.1037 101.82 39.9931 101.76C39.8828 101.698 39.7237 101.63 39.5375 101.562C39.1657 101.425 38.6741 101.346 38.1728 101.574C37.5026 101.877 37.4191 102.109 37.4191 102.109Z" fill="#C2CEC1"/>
<path d="M35.5357 98.9663C35.5357 98.9663 35.7207 98.9451 35.9892 98.9805C36.2577 99.0162 36.6088 99.1086 36.9483 99.3387C37.2887 99.5667 37.4523 99.9061 37.538 100.171C37.623 100.439 37.6215 100.653 37.6215 100.653C37.6215 100.653 37.5435 100.662 37.4167 100.662C37.289 100.665 37.1174 100.643 36.9263 100.596C36.5451 100.5 36.0904 100.286 35.8182 99.8198C35.4574 99.1988 35.5357 98.9663 35.5357 98.9663Z" fill="#C2CEC1"/>
<path d="M32.5732 100.405C32.5732 100.405 32.7058 100.542 32.9466 100.692C33.187 100.842 33.5366 101.005 33.9629 101.054C34.1762 101.077 34.3673 101.055 34.5365 101.001C34.7065 100.943 34.8516 100.861 34.9695 100.777C35.2051 100.609 35.3325 100.433 35.3325 100.433C35.3325 100.433 35.2734 100.382 35.1691 100.311C35.0655 100.239 34.9141 100.155 34.7358 100.069C34.3792 99.896 33.898 99.7698 33.3766 99.9472C32.6793 100.183 32.5732 100.405 32.5732 100.405Z" fill="#C2CEC1"/>
<path d="M31.0117 97.0935C31.0117 97.0935 31.1982 97.0902 31.4615 97.152C31.7251 97.2137 32.0655 97.34 32.3806 97.6022C32.6964 97.8629 32.8262 98.2147 32.8841 98.4897C32.942 98.764 32.9191 98.9775 32.9191 98.9775C32.9191 98.9775 32.6016 98.9893 32.2337 98.8509C31.8638 98.7186 31.4325 98.4615 31.2079 97.9707C30.9108 97.3173 31.0117 97.0935 31.0117 97.0935Z" fill="#C2CEC1"/>
<path d="M27.9206 98.2349C27.9206 98.2349 28.0388 98.3842 28.2637 98.5568C28.4883 98.7291 28.8202 98.9253 29.2399 99.0152C29.4495 99.06 29.6431 99.0543 29.8152 99.0197C29.9896 98.9804 30.1426 98.9122 30.2681 98.8402C30.5195 98.6961 30.6637 98.5338 30.6637 98.5338C30.6637 98.5338 30.61 98.4768 30.5134 98.3963C30.418 98.313 30.2742 98.2177 30.1072 98.1105C29.7695 97.904 29.303 97.7314 28.766 97.8573C28.0483 98.0242 27.9206 98.2349 27.9206 98.2349Z" fill="#C2CEC1"/>
<path d="M26.6952 94.7866C26.6952 94.7866 26.881 94.8015 27.1373 94.8884C27.3939 94.9753 27.7203 95.1336 28.0083 95.4249C28.2963 95.7162 28.3932 96.0741 28.4204 96.3593C28.4508 96.6378 28.407 96.848 28.407 96.848C28.407 96.848 28.3286 96.8416 28.2046 96.8165C28.0818 96.7892 27.9169 96.7356 27.7386 96.6527C27.3833 96.4855 26.9792 96.1879 26.8043 95.678C26.5723 94.9992 26.6952 94.7866 26.6952 94.7866Z" fill="#C2CEC1"/>
<path d="M23.5059 95.6199C23.5059 95.6199 23.6089 95.7797 23.8159 95.9729C24.0225 96.1661 24.3336 96.3929 24.7426 96.5228C25.1513 96.653 25.5149 96.5752 25.7818 96.4516C26.0463 96.3326 26.206 96.1852 26.206 96.1852C26.206 96.1852 26.1582 96.1234 26.0701 96.0338C25.9814 95.9451 25.8522 95.8285 25.6962 95.7068C25.3802 95.4688 24.9325 95.2523 24.3851 95.3259C23.6537 95.4228 23.5059 95.6199 23.5059 95.6199Z" fill="#C2CEC1"/>
<path d="M22.627 92.0692C22.627 92.0692 22.8108 92.1019 23.0576 92.2127C23.3048 92.3239 23.6144 92.5128 23.8726 92.8301C24.1307 93.1474 24.1925 93.5123 24.191 93.799C24.1895 93.9431 24.1743 94.0643 24.1587 94.1499C24.1432 94.2362 24.127 94.2871 24.127 94.2871C24.127 94.2871 24.1078 94.2829 24.0731 94.2756C24.0386 94.2674 23.9884 94.2556 23.9302 94.2338C23.8122 94.192 23.6522 94.1251 23.4831 94.0246C23.1457 93.8241 22.7721 93.4893 22.6478 92.9658C22.4838 92.269 22.627 92.0692 22.627 92.0692Z" fill="#C2CEC1"/>
<path d="M19.371 92.5875C19.371 92.5875 19.4582 92.7561 19.6453 92.9681C19.8321 93.18 20.1201 93.4353 20.5148 93.6036C20.911 93.7698 21.2767 93.7326 21.5537 93.6369C21.8289 93.544 22.0023 93.4126 22.0023 93.4126C22.0023 93.4126 21.9608 93.3466 21.8816 93.2491C21.8005 93.1543 21.6899 93.0171 21.5442 92.8839C21.2526 92.6169 20.8278 92.3589 20.2755 92.3792C19.5374 92.4058 19.371 92.5875 19.371 92.5875Z" fill="#C2CEC1"/>
<path d="M18.848 88.9659C18.848 88.9659 18.8907 88.9811 18.9645 89.0111C19.0388 89.0404 19.1427 89.0861 19.2604 89.1534C19.4956 89.2875 19.7858 89.5049 20.0122 89.8452C20.4638 90.5247 20.1198 91.3225 20.1198 91.3225C20.1198 91.3225 19.8248 91.2274 19.5075 90.9955C19.1909 90.7639 18.8514 90.3954 18.7786 89.8628C18.6813 89.1558 18.848 88.9659 18.848 88.9659Z" fill="#C2CEC1"/>
<path d="M15.554 89.1681C15.554 89.1681 15.6244 89.344 15.7901 89.5729C15.9559 89.8012 16.2177 90.0828 16.5947 90.2881C16.9717 90.4934 17.3453 90.4852 17.6232 90.4247C17.906 90.359 18.0919 90.2448 18.0919 90.2448C18.0919 90.2448 18.0572 90.1752 17.9877 90.0707C17.9207 89.9635 17.8235 89.8173 17.6909 89.671C17.4264 89.3776 17.028 89.0803 16.4755 89.0479C15.7377 89.0034 15.554 89.1681 15.554 89.1681Z" fill="#C2CEC1"/>
<path d="M15.394 85.5096C15.394 85.5096 15.4361 85.5278 15.5046 85.5663C15.5717 85.6062 15.6713 85.6613 15.7823 85.7392C16.0038 85.8951 16.2717 86.1391 16.4643 86.4988C16.8483 87.2177 16.4277 87.9782 16.4277 87.9782C16.4277 87.9782 16.1431 87.8553 15.8496 87.594C15.5564 87.3333 15.2541 86.9345 15.2334 86.398C15.2185 86.0419 15.2596 85.8203 15.3053 85.6853C15.3495 85.5523 15.394 85.5096 15.394 85.5096Z" fill="#C2CEC1"/>
<path d="M12.092 85.3942C12.092 85.3942 12.1447 85.5761 12.2876 85.8196C12.4306 86.0627 12.664 86.3676 13.02 86.6077C13.3759 86.8478 13.7486 86.8757 14.0314 86.8421C14.313 86.81 14.5114 86.7125 14.5114 86.7125C14.5114 86.7125 14.4816 86.6416 14.4279 86.526C14.3731 86.4115 14.2893 86.2577 14.1719 86.0993C13.937 85.7823 13.5688 85.4487 13.0215 85.3633C12.2904 85.2482 12.092 85.3942 12.092 85.3942Z" fill="#C2CEC1"/>
<path d="M12.2962 81.7349C12.2962 81.7349 12.3364 81.757 12.401 81.8021C12.4671 81.846 12.5512 81.9177 12.6561 82.004C12.8618 82.1803 13.105 82.4485 13.2622 82.8249C13.5752 83.5764 13.0821 84.2921 13.0821 84.2921C13.0821 84.2921 12.8106 84.1426 12.5433 83.8549C12.2763 83.5676 12.0136 83.1419 12.045 82.6069C12.063 82.2526 12.1355 82.0289 12.1907 81.9017C12.2477 81.773 12.2962 81.7349 12.2962 81.7349Z" fill="#C2CEC1"/>
<path d="M9.02155 81.2988C9.02155 81.2988 9.02855 81.3464 9.04928 81.4269C9.07213 81.5059 9.11145 81.6158 9.17057 81.7436C9.28942 81.9989 9.49239 82.3246 9.82366 82.5978C10.4871 83.1452 11.2962 82.8482 11.2962 82.8482C11.2962 82.8482 11.224 82.5408 11.021 82.2035C10.8175 81.8656 10.4831 81.4984 9.94586 81.3609C9.58869 81.2682 9.3522 81.2546 9.21415 81.2601C9.07427 81.2667 9.02155 81.2988 9.02155 81.2988Z" fill="#C2CEC1"/>
<path d="M9.58538 77.6776C9.58538 77.6776 9.73685 77.7809 9.9133 77.9825C10.1007 78.1778 10.3174 78.4679 10.4372 78.8573C10.6758 79.6345 10.1153 80.2985 10.1153 80.2985C10.1153 80.2985 9.85905 80.1235 9.62104 79.8116C9.38303 79.5004 9.16269 79.0516 9.24589 78.5227C9.30379 78.169 9.39705 77.9541 9.46409 77.8329C9.53357 77.7106 9.58538 77.6776 9.58538 77.6776Z" fill="#C2CEC1"/>
<path d="M6.37024 76.924C6.37024 76.924 6.37268 76.9721 6.38517 77.0541C6.39614 77.1371 6.42357 77.2507 6.47081 77.3833C6.56437 77.6488 6.73503 77.9925 7.03826 78.2962C7.64594 78.9048 8.48096 78.688 8.48096 78.688C8.48096 78.688 8.43921 78.3752 8.26946 78.0203C8.09971 77.6646 7.80227 77.267 7.28054 77.0781C7.10652 77.0151 6.96177 76.9739 6.84291 76.9479C6.72619 76.9206 6.63598 76.9082 6.56559 76.9046C6.4257 76.8973 6.37024 76.924 6.37024 76.924Z" fill="#C2CEC1"/>
<path d="M7.2894 73.3756C7.2894 73.3756 7.4302 73.4931 7.58623 73.7108C7.74592 73.927 7.93914 74.2337 8.01868 74.6334C8.1805 75.4294 7.55728 76.0353 7.55728 76.0353C7.55728 76.0353 7.31927 75.8363 7.11234 75.503C6.90572 75.1702 6.73018 74.7027 6.86458 74.1847C7.06693 73.4855 7.2894 73.3756 7.2894 73.3756Z" fill="#C2CEC1"/>
<path d="M4.16471 72.3107C4.16471 72.3107 4.16227 72.3588 4.16684 72.4415C4.17142 72.5245 4.18086 72.6428 4.21652 72.7788C4.28357 73.0519 4.41979 73.4104 4.69224 73.7422C5.23775 74.4072 6.09045 74.273 6.09045 74.273C6.09045 74.273 6.07917 73.9578 5.94539 73.5884C5.81129 73.2181 5.55408 72.7936 5.05307 72.5547C4.71571 72.3967 4.50055 72.3313 4.36128 72.3107C4.22261 72.2895 4.16471 72.3107 4.16471 72.3107Z" fill="#C2CEC1"/>
<path d="M5.43224 68.8702C5.43224 68.8702 5.56085 69.001 5.69463 69.233C5.8275 69.4655 5.99329 69.788 6.03199 70.1937C6.11489 71.0012 5.43437 71.5429 5.43437 71.5429C5.43437 71.5429 5.21708 71.3219 5.04398 70.9697C4.87149 70.6182 4.74106 70.1365 4.92848 69.6339C5.20093 68.9571 5.43224 68.8702 5.43224 68.8702Z" fill="#C2CEC1"/>
<path d="M2.42859 67.5034C2.42859 67.5034 2.42158 67.551 2.41762 67.6339C2.41518 67.7163 2.4097 67.8362 2.43225 67.9749C2.47217 68.2534 2.57213 68.6234 2.81045 68.9801C3.28769 69.6953 4.14984 69.6453 4.14984 69.6453C4.14984 69.6453 4.16995 69.3307 4.07304 68.9498C3.97613 68.5683 3.76189 68.1205 3.28708 67.8338C2.96648 67.6433 2.76199 67.5564 2.62425 67.5225C2.48833 67.488 2.42859 67.5034 2.42859 67.5034Z" fill="#C2CEC1"/>
<path d="M4.0325 64.2046C4.0325 64.2046 4.1474 64.3475 4.25741 64.5912C4.3659 64.8359 4.49908 65.1729 4.49725 65.5804C4.49939 66.3922 3.76859 66.8642 3.76859 66.8642C3.76859 66.8642 3.57416 66.6226 3.43702 66.2556C3.30049 65.889 3.2182 65.3969 3.455 64.9149C3.79388 64.2685 4.0325 64.2046 4.0325 64.2046Z" fill="#C2CEC1"/>
<path d="M1.17937 62.549C1.17937 62.549 1.16749 62.5956 1.1556 62.6777C1.14402 62.7597 1.12909 62.8778 1.13732 63.018C1.1489 63.299 1.21168 63.6771 1.41312 64.0556C1.81631 64.8141 2.67937 64.8495 2.67937 64.8495C2.67937 64.8495 2.73087 64.5385 2.67236 64.1498C2.61385 63.7604 2.44563 63.2941 2.0019 62.9617C1.70233 62.7406 1.50485 62.6344 1.37228 62.5871C1.24033 62.5396 1.17937 62.549 1.17937 62.549Z" fill="#C2CEC1"/>
<path d="M3.10327 59.4241C3.10327 59.4241 3.20323 59.5776 3.28795 59.831C3.37755 60.0841 3.47172 60.4336 3.43027 60.839C3.35073 61.6471 2.57635 62.045 2.57635 62.045C2.57635 62.045 2.40722 61.7855 2.30756 61.4067C2.20791 61.0285 2.17743 60.5301 2.45872 60.0741C2.85795 59.4643 3.10327 59.4241 3.10327 59.4241Z" fill="#C2CEC1"/>
<path d="M0.427242 57.4975C0.427242 57.4975 0.355625 57.6788 0.34313 57.9595C0.326368 58.2402 0.350748 58.6226 0.512877 59.019C0.837439 59.8135 1.69227 59.9334 1.69227 59.9334C1.69227 59.9334 1.77486 59.6288 1.75597 59.2364C1.73707 58.843 1.617 58.3622 1.20863 57.9883C0.935265 57.7388 0.738699 57.615 0.61497 57.5544C0.488802 57.4938 0.427242 57.4975 0.427242 57.4975Z" fill="#C2CEC1"/>
<path d="M2.65013 54.575C2.65013 54.575 2.67116 54.6155 2.6992 54.6888C2.72876 54.7621 2.75984 54.868 2.79519 54.9979C2.86742 55.2583 2.91953 55.6156 2.83908 56.015C2.67817 56.8119 1.86752 57.1323 1.86752 57.1323C1.86752 57.1323 1.72551 56.8576 1.66486 56.4704C1.60391 56.084 1.62433 55.5853 1.95011 55.1587C2.05678 55.0167 2.15704 54.9095 2.24694 54.8281C2.33502 54.7469 2.40938 54.6918 2.46911 54.6543C2.58827 54.5795 2.65013 54.575 2.65013 54.575Z" fill="#C2CEC1"/>
<path d="M0.17338 52.3979C0.17338 52.3979 0.0981063 52.5717 0.0530029 52.8497C0.0078994 53.1274 -0.00672845 53.5104 0.114259 53.9203C0.356537 54.7421 1.19461 54.9447 1.19461 54.9447C1.19461 54.9447 1.30767 54.6497 1.3287 54.257C1.35003 53.864 1.27902 53.3735 0.911188 52.9617C0.420535 52.4107 0.17338 52.3979 0.17338 52.3979Z" fill="#C2CEC1"/>
<path d="M2.65747 49.9227C2.65747 49.9227 2.73305 50.0926 2.77815 50.3581C2.82356 50.624 2.8388 50.9846 2.71812 51.3749C2.47675 52.1536 1.63777 52.3977 1.63777 52.3977C1.63777 52.3977 1.5244 52.1109 1.50337 51.7204C1.48204 51.3301 1.55304 50.8356 1.92058 50.4408C2.41062 49.9164 2.65747 49.9227 2.65747 49.9227Z" fill="#C2CEC1"/>
<path d="M0.40928 47.5286C0.40928 47.5286 0.316635 47.6945 0.243494 47.967C0.170354 48.2392 0.117022 48.6189 0.195953 49.0382C0.277322 49.4579 0.511677 49.7383 0.748775 49.9133C0.980083 50.0883 1.18671 50.1579 1.18671 50.1579C1.18671 50.1579 1.2187 50.0868 1.25588 49.9672C1.29002 49.8473 1.33878 49.6795 1.37108 49.4851C1.43234 49.0958 1.41161 48.6016 1.08705 48.1577C0.654302 47.5643 0.40928 47.5286 0.40928 47.5286Z" fill="#C2CEC1"/>
<path d="M3.14077 45.0757C3.14077 45.0757 3.19867 45.2519 3.21665 45.5205C3.23494 45.7894 3.2133 46.1494 3.05361 46.5257C2.89392 46.9021 2.59922 47.1289 2.34414 47.2636C2.09516 47.3987 1.88427 47.4395 1.88427 47.4395C1.88427 47.4395 1.85958 47.365 1.8349 47.2418C1.8157 47.1189 1.79985 46.9469 1.809 46.7516C1.82759 46.3613 1.94827 45.8763 2.3542 45.5193C2.89605 45.0454 3.14077 45.0757 3.14077 45.0757Z" fill="#C2CEC1"/>
<path d="M1.13856 42.474C1.13856 42.474 1.02946 42.6299 0.929195 42.8943C0.828931 43.158 0.7372 43.5307 0.773466 43.9555C0.791446 44.1678 0.853921 44.35 0.937119 44.5032C1.0255 44.6574 1.13673 44.7827 1.24248 44.8808C1.45489 45.0773 1.65359 45.167 1.65359 45.167C1.65359 45.167 1.6926 45.0994 1.74167 44.9838C1.79348 44.8687 1.84345 44.704 1.8977 44.5141C1.99796 44.1329 2.02753 43.6391 1.74929 43.1662C1.3784 42.5333 1.13856 42.474 1.13856 42.474Z" fill="#C2CEC1"/>
<path d="M4.09985 40.3007C4.09985 40.3007 4.13978 40.4817 4.13063 40.7503C4.12149 41.0195 4.06389 41.3755 3.86702 41.734C3.67198 42.0928 3.34986 42.2887 3.09051 42.3993C2.83117 42.5098 2.61601 42.5295 2.61601 42.5295C2.61601 42.5295 2.54135 42.2224 2.60565 41.8367C2.66355 41.4503 2.83269 40.9795 3.27275 40.6643C3.8591 40.2462 4.09985 40.3007 4.09985 40.3007Z" fill="#C2CEC1"/>
<path d="M2.36524 37.5143C2.36524 37.5143 2.2412 37.6587 2.11473 37.9118C1.98856 38.1644 1.85996 38.5262 1.85295 38.9525C1.85051 39.1657 1.89135 39.3525 1.96327 39.5142C2.03732 39.6765 2.13424 39.8118 2.22993 39.9202C2.42162 40.1367 2.60996 40.2451 2.60996 40.2451C2.60996 40.2451 2.65567 40.1818 2.71601 40.0716C2.77848 39.962 2.84736 39.8039 2.91562 39.6192C3.05368 39.2498 3.13261 38.7614 2.90343 38.2634C2.59807 37.5972 2.36524 37.5143 2.36524 37.5143Z" fill="#C2CEC1"/>
<path d="M5.5282 35.6432C5.5282 35.6432 5.54953 35.827 5.51388 36.0938C5.47792 36.3605 5.38497 36.7093 5.15335 37.0466C4.92387 37.3845 4.58225 37.5471 4.31528 37.6325C4.04618 37.717 3.83011 37.7155 3.83011 37.7155C3.83011 37.7155 3.82097 37.638 3.82158 37.512C3.81884 37.3852 3.84048 37.2147 3.88802 37.0248C3.98401 36.6461 4.19948 36.1943 4.6691 35.9239C5.29415 35.5654 5.5282 35.6432 5.5282 35.6432Z" fill="#C2CEC1"/>
<path d="M4.07947 32.6997C4.07947 32.6997 3.94141 32.8314 3.79056 33.0706C3.63971 33.3095 3.47575 33.6568 3.42668 34.0804C3.40291 34.2923 3.42516 34.4822 3.48032 34.6502C3.53792 34.8192 3.62051 34.9633 3.70523 35.0805C3.87437 35.3145 4.05112 35.4411 4.05112 35.4411C4.05112 35.4411 4.10293 35.3824 4.17394 35.2788C4.24708 35.1759 4.3315 35.0254 4.41805 34.8483C4.59206 34.494 4.71914 34.0159 4.54056 33.4978C4.30316 32.8051 4.07947 32.6997 4.07947 32.6997Z" fill="#C2CEC1"/>
<path d="M7.41279 31.1484C7.41279 31.1484 7.41614 31.3337 7.35397 31.5953C7.2918 31.8576 7.16472 32.1955 6.9008 32.5085C6.63841 32.8222 6.28428 32.9512 6.00757 33.0087C5.73146 33.0663 5.51661 33.0436 5.51661 33.0436C5.51661 33.0436 5.50472 32.7281 5.644 32.3626C5.77717 31.995 6.03591 31.5663 6.52992 31.3434C7.18788 31.0479 7.41279 31.1484 7.41279 31.1484Z" fill="#C2CEC1"/>
<path d="M6.26423 28.0773C6.26423 28.0773 6.11399 28.1948 5.94028 28.4182C5.76688 28.6414 5.5694 28.9711 5.47888 29.3877C5.43378 29.596 5.43957 29.7883 5.47431 29.9594C5.51393 30.1326 5.5825 30.2846 5.65503 30.4093C5.80009 30.6591 5.96344 30.8023 5.96344 30.8023C5.96344 30.8023 6.02074 30.749 6.1018 30.653C6.18561 30.5583 6.28161 30.4154 6.38949 30.2494C6.59733 29.9139 6.77104 29.4504 6.64426 28.9169C6.47604 28.2038 6.26423 28.0773 6.26423 28.0773Z" fill="#C2CEC1"/>
<path d="M9.73473 26.8598C9.73473 26.8598 9.7198 27.0445 9.63234 27.2991C9.54487 27.5541 9.38549 27.8784 9.09231 28.1645C8.79914 28.4506 8.43892 28.5469 8.15184 28.5738C7.87147 28.6041 7.65997 28.5605 7.65997 28.5605C7.65997 28.5605 7.66637 28.4827 7.69167 28.3595C7.71909 28.2375 7.77304 28.0737 7.85654 27.8965C8.02476 27.5435 8.32433 27.142 8.83754 26.9682C9.5208 26.7378 9.73473 26.8598 9.73473 26.8598Z" fill="#C2CEC1"/>
<path d="M8.89603 23.6912C8.89603 23.6912 8.73512 23.7935 8.54069 23.9991C8.34625 24.2044 8.11799 24.5135 7.98725 24.9199C7.85621 25.3259 7.93453 25.6871 8.05887 25.9523C8.17864 26.2152 8.32705 26.3738 8.32705 26.3738C8.32705 26.3738 8.38922 26.3263 8.47943 26.2385C8.56872 26.1504 8.68605 26.022 8.80856 25.867C9.0481 25.553 9.266 25.1082 9.19194 24.5644C9.09442 23.838 8.89603 23.6912 8.89603 23.6912Z" fill="#C2CEC1"/>
<path d="M12.4699 22.8179C12.4699 22.8179 12.437 23.0005 12.3254 23.2457C12.2136 23.4913 12.0234 23.7989 11.704 24.0554C11.3846 24.3118 11.0171 24.3733 10.7288 24.3718C10.5837 24.3703 10.4618 24.3551 10.3756 24.3397C10.2887 24.3239 10.2375 24.3079 10.2375 24.3079C10.2375 24.3079 10.2418 24.2888 10.2491 24.2543C10.2574 24.2201 10.2692 24.1701 10.2912 24.1123C10.3332 23.9951 10.4006 23.8362 10.5018 23.6681C10.7035 23.3329 11.0406 22.9617 11.5675 22.8382C12.2687 22.6756 12.4699 22.8179 12.4699 22.8179Z" fill="#C2CEC1"/>
<path d="M11.9481 19.5829C11.9481 19.5829 11.7784 19.6695 11.5651 19.8554C11.3517 20.041 11.0948 20.3271 10.9254 20.7192C10.7581 21.1128 10.7955 21.4762 10.8919 21.7514C10.9854 22.0248 11.1174 22.1971 11.1174 22.1971C11.1174 22.1971 11.1838 22.1559 11.2819 22.0772C11.3773 21.9967 11.5154 21.8868 11.6495 21.742C11.9183 21.4523 12.1779 21.0302 12.1575 20.4815C12.1313 19.7482 11.9481 19.5829 11.9481 19.5829Z" fill="#C2CEC1"/>
<path d="M15.5933 19.0637C15.5933 19.0637 15.5781 19.106 15.5479 19.1793C15.5184 19.2532 15.4723 19.3561 15.4047 19.4733C15.2697 19.7071 15.0509 19.9953 14.7083 20.2203C14.0245 20.669 13.2214 20.3272 13.2214 20.3272C13.2214 20.3272 13.3171 20.0341 13.5506 19.7186C13.7837 19.404 14.1546 19.0667 14.6907 18.9943C15.4023 18.8977 15.5933 19.0637 15.5933 19.0637Z" fill="#C2CEC1"/>
<path d="M15.3897 15.7906C15.3897 15.7906 15.2127 15.8606 14.9823 16.0253C14.7525 16.1897 14.4691 16.4501 14.2625 16.8247C14.0558 17.1992 14.0641 17.5704 14.125 17.8465C14.1911 18.1275 14.3057 18.3122 14.3057 18.3122C14.3057 18.3122 14.3758 18.2777 14.481 18.2087C14.5888 18.1421 14.736 18.0455 14.8832 17.9138C15.1785 17.6509 15.4778 17.2552 15.5104 16.7063C15.5558 15.9732 15.3897 15.7906 15.3897 15.7906Z" fill="#C2CEC1"/>
<path d="M19.0721 15.6316C19.0721 15.6316 19.0538 15.6734 19.0151 15.7415C18.9748 15.8081 18.9194 15.9071 18.8411 16.0173C18.6841 16.2375 18.4385 16.5039 18.0764 16.695C17.3529 17.0765 16.5874 16.6583 16.5874 16.6583C16.5874 16.6583 16.7111 16.3755 16.9741 16.0839C17.2365 15.7927 17.6379 15.4923 18.1779 15.4717C18.5363 15.4569 18.7594 15.4978 18.8953 15.5435C19.0291 15.5874 19.0721 15.6316 19.0721 15.6316Z" fill="#C2CEC1"/>
<path d="M19.1882 12.3507C19.1882 12.3507 19.005 12.4031 18.76 12.5451C18.5153 12.6871 18.2084 12.919 17.9667 13.2727C17.7251 13.6263 17.697 13.9969 17.7308 14.2776C17.7632 14.5574 17.8613 14.7545 17.8613 14.7545C17.8613 14.7545 17.9326 14.7248 18.049 14.6718C18.1642 14.6173 18.319 14.5341 18.4784 14.4172C18.7975 14.1838 19.1333 13.818 19.2193 13.2742C19.3351 12.5481 19.1882 12.3507 19.1882 12.3507Z" fill="#C2CEC1"/>
<path d="M22.8714 12.5539C22.8714 12.5539 22.8492 12.5938 22.8038 12.658C22.7596 12.7237 22.6874 12.807 22.6005 12.9115C22.4231 13.1158 22.1531 13.3578 21.7743 13.5137C21.0179 13.8247 20.2975 13.3347 20.2975 13.3347C20.2975 13.3347 20.448 13.065 20.7375 12.7994C21.0268 12.5342 21.4552 12.2735 21.9937 12.3044C22.3503 12.3222 22.5755 12.3943 22.7035 12.4491C22.833 12.5057 22.8714 12.5539 22.8714 12.5539Z" fill="#C2CEC1"/>
<path d="M23.3103 9.30042C23.3103 9.30042 23.2625 9.30738 23.1814 9.32797C23.1019 9.35068 22.9912 9.38943 22.8626 9.44848C22.6057 9.56656 22.2778 9.76821 22.0029 10.0973C21.4519 10.7565 21.7509 11.5604 21.7509 11.5604C21.7509 11.5604 22.0602 11.4886 22.3997 11.287C22.7398 11.0847 23.1095 10.7526 23.2478 10.2188C23.3411 9.86389 23.3548 9.62893 23.3493 9.49177C23.3426 9.3528 23.3103 9.30042 23.3103 9.30042Z" fill="#C2CEC1"/>
<path d="M26.9555 9.8606C26.9555 9.8606 26.8515 10.0111 26.6486 10.1864C26.452 10.3726 26.16 10.5879 25.7681 10.7069C24.9858 10.944 24.3175 10.3871 24.3175 10.3871C24.3175 10.3871 24.4937 10.1328 24.8075 9.89602C25.1208 9.65955 25.5725 9.44064 26.1049 9.5233C26.4608 9.58083 26.6772 9.67348 26.7991 9.74009C26.9219 9.80882 26.9555 9.8606 26.9555 9.8606Z" fill="#C2CEC1"/>
<path d="M27.7137 6.66626C27.7137 6.66626 27.6652 6.66868 27.5826 6.6811C27.4991 6.692 27.3848 6.71925 27.2513 6.76618C26.9841 6.85913 26.6382 7.02869 26.3325 7.32996C25.72 7.93371 25.9382 8.76333 25.9382 8.76333C25.9382 8.76333 26.253 8.72185 26.6101 8.5532C26.9682 8.38455 27.3684 8.08904 27.5585 7.57067C27.6219 7.39778 27.6634 7.25396 27.6896 7.13588C27.717 7.01991 27.7295 6.92998 27.7332 6.86034C27.7408 6.72137 27.7137 6.66626 27.7137 6.66626Z" fill="#C2CEC1"/>
<path d="M31.285 7.57944C31.285 7.57944 31.1668 7.71933 30.9477 7.87435C30.7301 8.03301 30.4214 8.22498 30.0191 8.304C29.2179 8.46478 28.6081 7.84559 28.6081 7.84559C28.6081 7.84559 28.8083 7.60912 29.1439 7.40353C29.4788 7.19824 29.9496 7.02384 30.4707 7.15736C31.1747 7.35841 31.285 7.57944 31.285 7.57944Z" fill="#C2CEC1"/>
<path d="M32.3569 4.47501C32.3569 4.47501 32.3084 4.47259 32.2252 4.47713C32.1417 4.48167 32.0226 4.49106 31.8857 4.52648C31.6108 4.5931 31.25 4.72844 30.916 4.99913C30.2468 5.54111 30.3818 6.38829 30.3818 6.38829C30.3818 6.38829 30.699 6.37739 31.0708 6.24417C31.4435 6.11064 31.8708 5.85509 32.1112 5.35762C32.2703 5.02244 32.3361 4.80868 32.3569 4.6703C32.3785 4.53254 32.3569 4.47501 32.3569 4.47501Z" fill="#C2CEC1"/>
<path d="M35.8198 5.73398C35.8198 5.73398 35.6882 5.86176 35.4547 5.99468C35.2207 6.12669 34.8961 6.2914 34.4877 6.32986C33.675 6.41191 33.1298 5.7361 33.1298 5.7361C33.1298 5.7361 33.3522 5.52022 33.7067 5.34824C34.0605 5.17716 34.5453 5.04727 35.0512 5.23348C35.7324 5.50447 35.8198 5.73398 35.8198 5.73398Z" fill="#C2CEC1"/>
<path d="M37.1955 2.7501C37.1955 2.7501 37.1476 2.74314 37.0641 2.7392C36.9812 2.73678 36.8605 2.73133 36.721 2.75373C36.4406 2.7931 36.0682 2.89271 35.7092 3.12949C34.9893 3.60334 35.0396 4.46022 35.0396 4.46022C35.0396 4.46022 35.3563 4.4802 35.7397 4.38392C36.1236 4.28763 36.5744 4.07508 36.863 3.60304C37.0547 3.28451 37.1421 3.08134 37.1763 2.94449C37.2113 2.80945 37.1955 2.7501 37.1955 2.7501Z" fill="#C2CEC1"/>
<path d="M40.5158 4.34329C40.5158 4.34329 40.3719 4.45744 40.1266 4.56675C39.8804 4.67454 39.5412 4.80685 39.131 4.80504C38.3139 4.80715 37.8388 4.08108 37.8388 4.08108C37.8388 4.08108 38.082 3.88791 38.4514 3.75165C38.8204 3.61601 39.3156 3.53426 39.8008 3.76952C40.4515 4.10621 40.5158 4.34329 40.5158 4.34329Z" fill="#C2CEC1"/>
<path d="M42.1822 1.50898C42.1822 1.50898 42.1352 1.49717 42.0526 1.48537C41.97 1.47386 41.8512 1.45902 41.7101 1.4672C41.4273 1.4787 41.0466 1.54108 40.6657 1.74122C39.9023 2.1418 39.8666 2.99928 39.8666 2.99928C39.8666 2.99928 40.1796 3.05045 40.5709 2.99232C40.9628 2.93418 41.4325 2.76735 41.7668 2.32619C41.9892 2.02856 42.0962 1.83235 42.1438 1.70064C42.1916 1.56954 42.1822 1.50898 42.1822 1.50898Z" fill="#C2CEC1"/>
<path d="M45.3275 3.42042C45.3275 3.42042 45.1729 3.51973 44.9179 3.60391C44.6631 3.69293 44.3114 3.78649 43.9033 3.74531C43.09 3.66628 42.6895 2.89691 42.6895 2.89691C42.6895 2.89691 42.9507 2.72887 43.3319 2.62986C43.7126 2.53085 44.2142 2.50057 44.6732 2.78004C45.2869 3.17638 45.3275 3.42042 45.3275 3.42042Z" fill="#C2CEC1"/>
<path d="M47.2669 0.761385C47.2669 0.761385 47.0844 0.690232 46.8019 0.677817C46.5194 0.661164 46.1345 0.685387 45.7355 0.846467C44.9362 1.16893 44.8152 2.01824 44.8152 2.01824C44.8152 2.01824 45.1218 2.10029 45.5167 2.08152C45.9126 2.06275 46.3965 1.94345 46.7729 1.53772C47.024 1.26612 47.1487 1.07083 47.2096 0.947899C47.2703 0.82285 47.2669 0.761385 47.2669 0.761385Z" fill="#C2CEC1"/>
<path d="M50.2084 2.96988C50.2084 2.96988 50.1676 2.99077 50.0938 3.01863C50.0201 3.048 49.9134 3.07888 49.7827 3.114C49.5206 3.18576 49.161 3.23754 48.759 3.1576C47.9569 2.99773 47.6345 2.19233 47.6345 2.19233C47.6345 2.19233 47.9109 2.05124 48.3007 1.99098C48.6895 1.93043 49.1914 1.95071 49.6208 2.27439C49.7638 2.38036 49.8717 2.47998 49.9536 2.5693C50.0353 2.6568 50.0908 2.73068 50.1286 2.79002C50.2035 2.90872 50.2084 2.96988 50.2084 2.96988Z" fill="#C2CEC1"/>
<path d="M52.3996 0.509486C52.3996 0.509486 52.2246 0.434699 51.9449 0.389887C51.6654 0.345075 51.2799 0.330542 50.8673 0.450747C50.0402 0.691458 49.8363 1.52411 49.8363 1.52411C49.8363 1.52411 50.1331 1.63644 50.5284 1.65733C50.924 1.67853 51.4177 1.60798 51.8321 1.24252C52.3865 0.755043 52.3996 0.509486 52.3996 0.509486Z" fill="#C2CEC1"/>
<path d="M54.8907 2.97768C54.8907 2.97768 54.7197 3.05277 54.4525 3.09758C54.1849 3.1427 53.8216 3.15784 53.4291 3.03793C52.6453 2.79813 52.3997 1.96457 52.3997 1.96457C52.3997 1.96457 52.6883 1.85194 53.0814 1.83104C53.4742 1.80985 53.9719 1.8804 54.3693 2.24555C54.8971 2.73243 54.8907 2.97768 54.8907 2.97768Z" fill="#C2CEC1"/>
<path d="M57.3003 0.74383C57.3003 0.74383 57.1333 0.651784 56.8591 0.579116C56.5851 0.506448 56.2029 0.453461 55.7808 0.531882C55.3588 0.612725 55.0766 0.845565 54.9004 1.08113C54.7243 1.31094 54.6542 1.51623 54.6542 1.51623C54.6542 1.51623 54.7258 1.54802 54.8462 1.58496C54.9669 1.61887 55.1357 1.66732 55.3313 1.69941C55.7232 1.75997 56.2206 1.73968 56.6674 1.41722C57.2647 0.987267 57.3003 0.74383 57.3003 0.74383Z" fill="#C2CEC1"/>
<path d="M59.7692 3.45788C59.7692 3.45788 59.5918 3.51541 59.3215 3.53328C59.0509 3.55144 58.6886 3.52995 58.3098 3.37129C57.9309 3.21263 57.7027 2.91984 57.5671 2.66641C57.4312 2.41904 57.39 2.20951 57.39 2.20951C57.39 2.20951 57.465 2.18529 57.589 2.16046C57.7127 2.14138 57.8858 2.12564 58.0824 2.13472C58.4752 2.15319 58.9634 2.27309 59.3228 2.6764C59.8 3.21475 59.7692 3.45788 59.7692 3.45788Z" fill="#C2CEC1"/>
<path d="M62.3883 1.4683C62.3883 1.4683 62.2313 1.3599 61.9653 1.26029C61.6998 1.16067 61.3247 1.06954 60.8971 1.10557C60.6835 1.12343 60.5 1.1855 60.3458 1.26846C60.1907 1.35627 60.0645 1.46648 59.9658 1.57185C59.768 1.78289 59.6778 1.98 59.6778 1.98C59.6778 1.98 59.7457 2.01876 59.8622 2.06751C59.978 2.11898 60.1438 2.16864 60.3348 2.22253C60.7185 2.32215 61.2156 2.35152 61.6916 2.07508C62.3282 1.70689 62.3883 1.4683 62.3883 1.4683Z" fill="#C2CEC1"/>
<path d="M64.5754 4.41034C64.5754 4.41034 64.3932 4.45 64.1229 4.44092C63.852 4.43183 63.4936 4.37461 63.1327 4.17901C62.7716 3.98523 62.5744 3.66519 62.4632 3.40752C62.352 3.14985 62.3322 2.93639 62.3322 2.93639C62.3322 2.93639 62.6412 2.86221 63.0291 2.9261C63.418 2.98363 63.8919 3.15167 64.2091 3.58889C64.6303 4.17144 64.5754 4.41034 64.5754 4.41034Z" fill="#C2CEC1"/>
<path d="M67.3798 2.68694C67.3798 2.68694 67.2344 2.5637 66.9797 2.43805C66.7255 2.31239 66.3613 2.18462 65.9322 2.17796C65.7174 2.17554 65.5296 2.21611 65.3669 2.28757C65.2036 2.36114 65.0673 2.45743 64.9582 2.5525C64.7403 2.74295 64.6312 2.93007 64.6312 2.93007C64.6312 2.93007 64.6949 2.97549 64.8058 3.03544C64.9162 3.09751 65.0752 3.16594 65.2611 3.23376C65.6329 3.37092 66.1245 3.44934 66.6258 3.22165C67.2966 2.91856 67.3798 2.68694 67.3798 2.68694Z" fill="#C2CEC1"/>
<path d="M69.2635 5.82978C69.2635 5.82978 69.0785 5.85098 68.81 5.81555C68.5415 5.77982 68.1904 5.68747 67.8509 5.45706C67.5108 5.22906 67.3472 4.88964 67.2612 4.6244C67.1762 4.35705 67.1777 4.14237 67.1777 4.14237C67.1777 4.14237 67.2558 4.13329 67.3825 4.1339C67.5102 4.13117 67.6818 4.15267 67.8729 4.1999C68.2541 4.29528 68.7088 4.50935 68.981 4.97593C69.3418 5.59694 69.2635 5.82978 69.2635 5.82978Z" fill="#C2CEC1"/>
<path d="M72.2257 4.39037C72.2257 4.39037 72.0931 4.25321 71.8524 4.10333C71.6119 3.95345 71.2623 3.79056 70.836 3.74181C70.6227 3.71819 70.4316 3.74029 70.2624 3.7951C70.0924 3.85232 69.9473 3.93438 69.8294 4.01855C69.5938 4.1866 69.4664 4.36221 69.4664 4.36221C69.4664 4.36221 69.5255 4.41368 69.6298 4.48454C69.7334 4.5572 69.8849 4.64107 70.0631 4.72676C70.4197 4.89965 70.9009 5.02591 71.4223 4.84848C72.1199 4.61231 72.2257 4.39037 72.2257 4.39037Z" fill="#C2CEC1"/>
<path d="M73.7873 7.70228C73.7873 7.70228 73.6008 7.70561 73.3375 7.64384C73.0735 7.58208 72.7334 7.45582 72.4183 7.19361C72.1026 6.93291 71.9728 6.58108 71.9149 6.30615C71.857 6.03183 71.8798 5.81837 71.8798 5.81837C71.8798 5.81837 72.1974 5.80656 72.5652 5.94493C72.9352 6.07725 73.3667 6.33431 73.591 6.82512C73.8884 7.47852 73.7873 7.70228 73.7873 7.70228Z" fill="#C2CEC1"/>
<path d="M76.8783 6.56101C76.8783 6.56101 76.7601 6.41174 76.5352 6.23946C76.3106 6.06687 75.9787 5.87097 75.5594 5.78104C75.3497 5.73623 75.1562 5.74199 74.984 5.7765C74.8097 5.81586 74.6567 5.88399 74.5311 5.95605C74.2797 6.10018 74.1356 6.26247 74.1356 6.26247C74.1356 6.26247 74.1892 6.31939 74.2858 6.39993C74.3812 6.4832 74.525 6.57857 74.692 6.68576C75.0297 6.89226 75.4963 7.06484 76.0333 6.93889C76.751 6.77145 76.8783 6.56101 76.8783 6.56101Z" fill="#C2CEC1"/>
<path d="M78.1038 10.0091C78.1038 10.0091 77.9179 9.99426 77.6616 9.90736C77.405 9.82046 77.0786 9.66211 76.7906 9.37083C76.5026 9.07956 76.4057 8.72167 76.3786 8.43644C76.3481 8.15788 76.392 7.94775 76.392 7.94775C76.392 7.94775 76.4703 7.95411 76.5943 7.97924C76.7171 8.00649 76.882 8.06009 77.0603 8.14305C77.4156 8.31018 77.8197 8.60782 77.9947 9.11771C78.2266 9.79654 78.1038 10.0091 78.1038 10.0091Z" fill="#C2CEC1"/>
<path d="M81.293 9.17591C81.293 9.17591 81.19 9.01604 80.9831 8.82286C80.7764 8.62969 80.4653 8.4029 80.0563 8.27301C79.6476 8.14281 79.2841 8.22063 79.0171 8.34416C78.7526 8.46316 78.5929 8.61061 78.5929 8.61061C78.5929 8.61061 78.6407 8.67238 78.7291 8.762C78.8178 8.85072 78.947 8.96729 79.1031 9.08901C79.4191 9.32699 79.8668 9.54348 80.4141 9.47021C81.1455 9.37302 81.293 9.17591 81.293 9.17591Z" fill="#C2CEC1"/>
<path d="M82.1722 12.7266C82.1722 12.7266 81.9885 12.6938 81.7416 12.583C81.4945 12.4719 81.1848 12.283 80.9267 11.9657C80.6686 11.6483 80.6067 11.2835 80.6082 10.9968C80.6098 10.8526 80.625 10.7315 80.6405 10.6458C80.6564 10.5595 80.6725 10.5087 80.6725 10.5087C80.6725 10.5087 80.6917 10.5129 80.7265 10.5202C80.7609 10.5283 80.8112 10.5402 80.8694 10.562C80.9874 10.6037 81.1474 10.6707 81.3165 10.7712C81.6539 10.9716 82.0275 11.3065 82.1518 11.83C82.3152 12.5267 82.1722 12.7266 82.1722 12.7266Z" fill="#C2CEC1"/>
<path d="M85.4282 12.2083C85.4282 12.2083 85.3411 12.0396 85.154 11.8277C84.9671 11.616 84.6792 11.3605 84.2845 11.1921C83.8883 11.0256 83.5226 11.0632 83.2456 11.1588C82.9704 11.2518 82.797 11.3832 82.797 11.3832C82.797 11.3832 82.8384 11.4492 82.9177 11.5467C82.9987 11.6415 83.1094 11.7786 83.255 11.9119C83.5467 12.1789 83.9715 12.4369 84.5237 12.4166C85.2615 12.3902 85.4282 12.2083 85.4282 12.2083Z" fill="#C2CEC1"/>
<path d="M85.9509 15.8298C85.9509 15.8298 85.9082 15.8146 85.8344 15.785C85.7601 15.7556 85.6565 15.7096 85.5385 15.6426C85.3033 15.5085 85.0131 15.2911 84.7867 14.9508C84.3351 14.2713 84.6791 13.4735 84.6791 13.4735C84.6791 13.4735 84.9741 13.5686 85.2917 13.8005C85.6083 14.0321 85.9478 14.4009 86.0206 14.9332C86.1176 15.6399 85.9509 15.8298 85.9509 15.8298Z" fill="#C2CEC1"/>
<path d="M89.245 15.6275C89.245 15.6275 89.1746 15.4516 89.0088 15.223C88.8433 14.9944 88.5812 14.7131 88.2042 14.5078C87.8272 14.3026 87.4536 14.3107 87.1757 14.3713C86.8929 14.437 86.707 14.5508 86.707 14.5508C86.707 14.5508 86.7417 14.6205 86.8112 14.7249C86.8782 14.8321 86.9755 14.9784 87.108 15.1246C87.3726 15.418 87.7709 15.7153 88.3234 15.7477C89.0615 15.7922 89.245 15.6275 89.245 15.6275Z" fill="#C2CEC1"/>
<path d="M89.4052 19.2861C89.4052 19.2861 89.3632 19.268 89.2946 19.2292C89.2276 19.1893 89.1279 19.1342 89.017 19.0563C88.7954 18.9004 88.5272 18.6567 88.3349 18.2967C87.9509 17.5779 88.3718 16.8173 88.3718 16.8173C88.3718 16.8173 88.6565 16.9402 88.9499 17.2015C89.2431 17.4622 89.5454 17.861 89.5662 18.3975C89.5811 18.7536 89.5399 18.9752 89.4939 19.1102C89.4497 19.2438 89.4052 19.2861 89.4052 19.2861Z" fill="#C2CEC1"/>
<path d="M92.7073 19.4015C92.7073 19.4015 92.6546 19.2195 92.5116 18.9761C92.3687 18.7329 92.1353 18.428 91.7793 18.1879C91.4234 17.9478 91.0503 17.92 90.7678 17.9533C90.4862 17.9854 90.2878 18.0829 90.2878 18.0829C90.2878 18.0829 90.3177 18.1537 90.371 18.2694C90.4259 18.3838 90.5097 18.5376 90.6273 18.696C90.8623 19.013 91.2304 19.3467 91.7778 19.4321C92.5086 19.5474 92.7073 19.4015 92.7073 19.4015Z" fill="#C2CEC1"/>
<path d="M92.5031 23.0609C92.5031 23.0609 92.4628 23.0388 92.3982 22.994C92.3321 22.9501 92.2483 22.8783 92.1432 22.792C91.9374 22.6158 91.694 22.3475 91.537 21.9712C91.224 21.2197 91.7171 20.5039 91.7171 20.5039C91.7171 20.5039 91.9887 20.6535 92.2559 20.9411C92.5229 21.2285 92.7853 21.6542 92.7542 22.1892C92.7362 22.5434 92.6637 22.7672 92.6085 22.8944C92.5512 23.0228 92.5031 23.0609 92.5031 23.0609Z" fill="#C2CEC1"/>
<path d="M95.7774 23.4969C95.7774 23.4969 95.7703 23.4494 95.7496 23.3688C95.7268 23.2898 95.6878 23.1799 95.6283 23.0518C95.5095 22.7963 95.3065 22.4705 94.9752 22.1977C94.3118 21.6502 93.5027 21.9473 93.5027 21.9473C93.5027 21.9473 93.5749 22.2546 93.7779 22.5919C93.9815 22.9298 94.3158 23.2971 94.853 23.4345C95.2102 23.5272 95.4467 23.5405 95.5848 23.5354C95.7249 23.529 95.7774 23.4969 95.7774 23.4969Z" fill="#C2CEC1"/>
<path d="M95.2135 27.1181C95.2135 27.1181 95.0621 27.0148 94.8856 26.8132C94.6982 26.6179 94.4815 26.3278 94.3617 25.9384C94.1231 25.1612 94.6839 24.4972 94.6839 24.4972C94.6839 24.4972 94.9399 24.6722 95.1782 24.9841C95.4162 25.2953 95.6365 25.744 95.5533 26.273C95.4954 26.6267 95.4022 26.8416 95.3351 26.9628C95.2656 27.0851 95.2135 27.1181 95.2135 27.1181Z" fill="#C2CEC1"/>
<path d="M98.429 27.8717C98.429 27.8717 98.4265 27.8236 98.414 27.7415C98.4031 27.6586 98.3756 27.545 98.3284 27.4124C98.2348 27.1469 98.0642 26.8032 97.7609 26.4995C97.1533 25.8909 96.3182 26.1077 96.3182 26.1077C96.3182 26.1077 96.36 26.4202 96.5297 26.7754C96.6995 27.1311 96.9969 27.5287 97.5187 27.7176C97.6927 27.7806 97.8374 27.8218 97.9563 27.8478C98.073 27.8751 98.1635 27.8875 98.2336 27.8911C98.3735 27.8987 98.429 27.8717 98.429 27.8717Z" fill="#C2CEC1"/>
<path d="M97.5096 31.4201C97.5096 31.4201 97.3688 31.3027 97.2127 31.085C97.0531 30.8688 96.8598 30.5621 96.7803 30.1624C96.6185 29.3664 97.2417 28.7605 97.2417 28.7605C97.2417 28.7605 97.4797 28.9594 97.6866 29.2928C97.8933 29.6255 98.0688 30.0933 97.9344 30.6111C97.732 31.3105 97.5096 31.4201 97.5096 31.4201Z" fill="#C2CEC1"/>
<path d="M100.634 32.4849C100.634 32.4849 100.637 32.4368 100.632 32.3541C100.627 32.2714 100.618 32.1527 100.582 32.0168C100.515 31.7437 100.379 31.3852 100.107 31.0533C99.5611 30.3884 98.7084 30.5226 98.7084 30.5226C98.7084 30.5226 98.7194 30.8378 98.8535 31.2072C98.9879 31.5775 99.2451 32.002 99.7458 32.2409C100.083 32.3989 100.298 32.4643 100.438 32.4849C100.576 32.5061 100.634 32.4849 100.634 32.4849Z" fill="#C2CEC1"/>
<path d="M99.367 35.9256C99.367 35.9256 99.2384 35.7948 99.1046 35.5629C98.9718 35.3303 98.806 35.0076 98.7673 34.6021C98.6847 33.7946 99.3649 33.2529 99.3649 33.2529C99.3649 33.2529 99.5822 33.4743 99.7553 33.8261C99.9275 34.1776 100.058 34.6594 99.8708 35.1623C99.598 35.8387 99.367 35.9256 99.367 35.9256Z" fill="#C2CEC1"/>
<path d="M102.37 37.2923C102.37 37.2923 102.377 37.2448 102.381 37.1618C102.383 37.0794 102.389 36.9595 102.367 36.8209C102.327 36.5423 102.227 36.1723 101.988 35.8156C101.512 35.1004 100.649 35.1504 100.649 35.1504C100.649 35.1504 100.629 35.465 100.726 35.8459C100.823 36.2274 101.037 36.6752 101.512 36.962C101.832 37.1524 102.037 37.2393 102.175 37.2732C102.311 37.3077 102.37 37.2923 102.37 37.2923Z" fill="#C2CEC1"/>
<path d="M100.767 40.591C100.767 40.591 100.652 40.4481 100.542 40.2044C100.433 39.9597 100.3 39.6227 100.302 39.2152C100.3 38.4034 101.031 37.9314 101.031 37.9314C101.031 37.9314 101.225 38.173 101.363 38.54C101.499 38.9067 101.581 39.3987 101.345 39.8807C101.005 40.5275 100.767 40.591 100.767 40.591Z" fill="#C2CEC1"/>
<path d="M103.62 42.2466C103.62 42.2466 103.631 42.2 103.643 42.1179C103.655 42.0359 103.67 41.9178 103.662 41.7776C103.65 41.4966 103.587 41.1184 103.386 40.7399C102.983 39.9815 102.12 39.946 102.12 39.946C102.12 39.946 102.068 40.257 102.127 40.6458C102.185 41.0349 102.353 41.5014 102.797 41.8339C103.097 42.0549 103.294 42.1612 103.427 42.2084C103.559 42.256 103.62 42.2466 103.62 42.2466Z" fill="#C2CEC1"/>
<path d="M101.696 45.3717C101.696 45.3717 101.596 45.2182 101.511 44.9647C101.422 44.7116 101.328 44.3622 101.369 43.9571C101.448 43.149 102.223 42.7511 102.223 42.7511C102.223 42.7511 102.392 43.0106 102.492 43.3894C102.591 43.7675 102.622 44.2659 102.341 44.7219C101.941 45.3314 101.696 45.3717 101.696 45.3717Z" fill="#C2CEC1"/>
<path d="M104.372 47.2983C104.372 47.2983 104.444 47.1169 104.456 46.8363C104.473 46.5556 104.448 46.1732 104.286 45.7768C103.961 44.9823 103.107 44.8624 103.107 44.8624C103.107 44.8624 103.024 45.167 103.043 45.5594C103.062 45.9527 103.182 46.4336 103.591 46.8075C103.864 47.057 104.06 47.1808 104.184 47.2414C104.31 47.3019 104.372 47.2983 104.372 47.2983Z" fill="#C2CEC1"/>
<path d="M102.149 50.2211C102.149 50.2211 102.128 50.1805 102.1 50.1073C102.07 50.034 102.039 49.928 102.004 49.7981C101.932 49.5377 101.88 49.1805 101.96 48.7811C102.121 47.9842 102.932 47.6638 102.932 47.6638C102.932 47.6638 103.074 47.9387 103.134 48.3257C103.195 48.712 103.175 49.2107 102.849 49.6374C102.742 49.7794 102.642 49.8865 102.552 49.968C102.464 50.0491 102.39 50.1042 102.33 50.1418C102.211 50.2163 102.149 50.2211 102.149 50.2211Z" fill="#C2CEC1"/>
<path d="M104.626 52.3981C104.626 52.3981 104.701 52.2244 104.746 51.9464C104.791 51.6687 104.806 51.2857 104.685 50.8758C104.443 50.054 103.605 49.8514 103.605 49.8514C103.605 49.8514 103.491 50.1464 103.47 50.5391C103.449 50.9321 103.52 51.4226 103.888 51.8344C104.379 52.3851 104.626 52.3981 104.626 52.3981Z" fill="#C2CEC1"/>
</svg>
